<svg xmlns="http://www.w3.org/2000/svg" xmlns:xlink="http://www.w3.org/1999/xlink" width="4450" height="3630" viewBox="0 0 4450 3630">
  <defs>
    <linearGradient id="linear-gradient" y1="0.458" x2="0.488" y2="1" gradientUnits="objectBoundingBox">
      <stop offset="0" stop-color="#56b5e3" stop-opacity="0.549"/>
      <stop offset="1" stop-color="#7d58a5" stop-opacity="0.639"/>
    </linearGradient>
    <clipPath id="clip-cyberSecurity">
      <rect width="4450" height="3630"/>
    </clipPath>
  </defs>
  <g id="cyberSecurity" clip-path="url(#clip-cyberSecurity)">
    <rect width="4450" height="3630" fill="url(#linear-gradient)"/>
    <g id="hacker" transform="translate(1721.264 1051.421)" opacity="0.81">
      <path id="Path_1" data-name="Path 1" d="M923.561,386.643a595.2,595.2,0,0,0,17.813-63.649c.4-1.822-3.2-8.013-8.991-16.473a313.453,313.453,0,0,0-143.711-114.1l-157.9-62.37a315.676,315.676,0,0,0-232.342.169L240.8,192.726A313.507,313.507,0,0,0,97.306,306.967c-5.793,8.484-9.4,14.687-8.991,16.522a596.5,596.5,0,0,0,20.7,71.675c81.172,226.682,275.306,336.663,275.306,336.663l261.511-.145S839.588,621.616,920.6,395.139q1.5-4.236,2.957-8.5Zm0,0" transform="translate(222.365 262.314)" fill="#ecf0f7"/>
      <path id="Path_2" data-name="Path 2" d="M201.776,138.242l-29.894.024a46.807,46.807,0,0,0-28.747,9.824c-13.806,10.681-19.853,28.638-16.727,45.812l11.779,64.639c9.148,47.9,63.746,25.971,63.746,25.971Zm0,0" transform="translate(284.713 320.301)" fill="#efd0af"/>
      <path id="Path_3" data-name="Path 3" d="M303.211,138.172l29.894-.024a46.887,46.887,0,0,1,28.759,9.788c13.818,10.669,19.889,28.614,16.775,45.8l-11.706,64.639c-9.076,47.924-63.709,26.056-63.709,26.056Zm0,0" transform="translate(687.311 320.083)" fill="#fae0c1"/>
      <path id="Path_4" data-name="Path 4" d="M460.952,579.117,563.1,483.051c17.692-16.63,8.967-46.295-14.893-50.712-27.758-5.564-47.743-37.75-47.767-66.063l-.072-126.164-134.479.084L231.4,240.27l.072,126.164c.012,28.313-19.937,60.523-47.682,66.111-23.871,4.453-32.549,34.13-14.856,50.736L271.2,579.225a138.588,138.588,0,0,0,189.752-.109Zm0,0" transform="translate(371.323 566.546)" fill="#fae0c1"/>
      <path id="Path_5" data-name="Path 5" d="M444.507,432.332c-27.77-5.564-47.755-37.75-47.767-66.063l-.072-126.151-106.251.06.06,126.091c.024,28.313,20.01,60.5,47.767,66.063,23.871,4.417,32.585,34.082,14.9,50.712l-102.16,96.065a138.016,138.016,0,0,1-41.805,27.057A138.589,138.589,0,0,0,357.24,579.109L459.4,483.043c17.692-16.618,8.967-46.295-14.892-50.712Zm0,0" transform="translate(480.136 566.554)" fill="#efd0af"/>
      <path id="Path_6" data-name="Path 6" d="M556.076,97.231c-38.9-35.916-93.555-67.257-165.736-68.078-72.182.905-126.8,32.307-165.652,68.271C175.135,143.3,148.307,211.4,148.343,281.661l.012,8.484h.06l.145,244.905c1.4,68.3,48.564,115.555,89.548,156.142,37.714,37.34,80.473,81.45,152.666,82.271,72.17-.905,114.892-45.051,152.557-82.452,40.936-40.634,88.052-87.943,89.379-156.238l-.145-244.905h.072l-.012-8.5c-.036-70.251-26.937-138.317-76.55-184.141Zm0,0" transform="translate(347.986 60.912)" fill="#fae0c1"/>
      <path id="Path_7" data-name="Path 7" d="M505.244,260.932h.06v-8.484c-.048-70.263-26.949-138.329-76.55-184.153A281.661,281.661,0,0,0,397.147,43V260.932l-.06-164.686.133,409.591c-1.328,68.3-48.443,115.616-89.379,156.25-27.178,26.973-56.975,57.458-98.563,72.7a161.391,161.391,0,0,0,54.163,9.751c72.182-.905,114.892-45.064,152.557-82.452,40.936-40.634,88.052-87.955,89.379-156.25Zm0,0" transform="translate(481.775 89.847)" fill="#efd0af"/>
      <path id="Path_8" data-name="Path 8" d="M1189.352,323.125,965.935,282.853c-47.5-8.569-97.006-1.678-138.939,21.1-30.092,16.329-70.878,27.335-91.22,32.2a53.418,53.418,0,0,1-25.2-.1c-20.214-4.984-60.72-16.184-91.181-32.464-42.29-22.592-91.411-30.9-139.041-21.965-89.333,16.751-206.018,38.619-206.018,38.619-30.653,5.745-42.009,12.744-49.567,22.894L24.195,668.379a110.593,110.593,0,0,0-5.965,106l80.96,170.768c7.15,19.418,26.511,32.44,48.229,32.428l1151.94-.628c21.884-.012,41.321-13.227,48.331-32.862l78.818-171.276a110.574,110.574,0,0,0-6.233-104.368l-198.6-325.5a51.346,51.346,0,0,0-32.323-19.816Zm0,0" transform="translate(15.636 686.408)" fill="#ecf0f7"/>
      <path id="Path_9" data-name="Path 9" d="M791.072,943.271,865.7,772a116,116,0,0,0-5.9-104.368L671.751,342.13a48.315,48.315,0,0,0-30.606-19.816L429.6,282.041c-44.979-8.569-91.853-1.69-131.558,21.084-17.849,10.234-39.681,18.38-58.231,24.233H239.8c5.588.591,265.941,59.63,265.941,59.63a48.348,48.348,0,0,1,30.606,19.829L724.393,701.409a115.962,115.962,0,0,1,5.9,104.368L656.049,976.184l89.258-.048a48.334,48.334,0,0,0,45.764-32.862Zm0,0" transform="translate(576.981 687.219)" fill="#ecf0f7"/>
      <path id="Path_10" data-name="Path 10" d="M1185.693,881.042l-1078.7.567L44.584,343.055C42.562,325.616,57.13,310.41,75.834,310.4l1140.325-.616c18.716-.012,33.3,15.194,31.3,32.633Zm0,0" transform="translate(92.766 752.613)" fill="#ededed"/>
      <path id="Path_11" data-name="Path 11" d="M492.889,309.781l-76.357.048-61.38,571.213h109.2l57.868-538.628a29.479,29.479,0,0,0-29.326-32.633Zm0,0" transform="translate(818.02 752.611)" fill="#d6d6d6"/>
      <path id="Path_12" data-name="Path 12" d="M1243.848,558.73H70.407c-17.192.012-31.143-13.058-31.156-29.194l-.013-21.12c0-16.148,13.926-29.23,31.118-29.242l1173.441-.628c17.192,0,31.13,13.07,31.143,29.206l.013,21.12C1274.953,545.008,1261.027,558.718,1243.848,558.73Zm0,0" transform="translate(81.988 1105.251)" fill="#d6d6d6"/>
      <path id="Path_13" data-name="Path 13" d="M488.056,507.744a29.211,29.211,0,0,0-29.242-29.194l-79.326.036.024,79.555,79.35.579C475,558.709,488.068,545,488.068,528.864Zm0,0" transform="translate(868.871 1105.26)" fill="#bebebe"/>
      <path id="Path_14" data-name="Path 14" d="M348.785,414.439a73,73,0,1,1-73-73A73,73,0,0,1,348.785,414.439Zm0,0" transform="translate(461.659 790.814)" fill="#8c4949"/>
      <path id="Path_15" data-name="Path 15" d="M330.464,607.4a73.02,73.02,0,0,1-74.921.048,124.912,124.912,0,0,1-60.9-107.192l-.036-68.851a66.259,66.259,0,0,1,66.22-66.3l64.059-.036a66.259,66.259,0,0,1,66.3,66.22l.036,68.863A124.9,124.9,0,0,1,330.464,607.4Zm0,0" transform="translate(444.587 868.123)" fill="#f43b45"/>
      <path id="Path_16" data-name="Path 16" d="M940.631,537.329c.338-1.448.664-2.909.99-4.369v-.012c.072-2.776.1-5.552.1-8.339C941.609,330.041,709.4,8.816,514.64,7.5,319.891,9.033,88.044,330.525,88.165,525.1q0,3.657.084,7.289c.145.459.253.821.3,1.062.29,1.267.579,2.534.857,3.8C106.859,473.728,329.667,423.6,514.882,423.246c185.77.145,409.412,50.314,425.752,114.083Zm0,0" transform="translate(222.096 15.669)" fill="#fff"/>
      <path id="Path_17" data-name="Path 17" d="M264.312,7.5a206.415,206.415,0,0,0-56.348,8.738c161.126,47.127,329.878,275.2,364.19,448.791,65.025,19.575,111.066,44.665,118.15,72.3.338-1.448.664-2.9.99-4.369v-.012c.072-2.764.1-5.551.1-8.327C691.283,330.042,459.073,8.817,264.314,7.5Zm0,0" transform="translate(487.793 15.669)" fill="#adb7b9"/>
      <path id="Path_18" data-name="Path 18" d="M343.413,435.168c22.375-.012,35.481-21.7,30.244-39.995a66.171,66.171,0,0,0-55.515-30.111l-64.156.036a66.144,66.144,0,0,0-54.477,28.687c-6.408,18.67,6.4,41.455,29.6,41.443Zm0,0" transform="translate(451.397 841.383)" fill="#cf3735"/>
      <path id="Path_19" data-name="Path 19" d="M547.364,532.371a23.177,23.177,0,0,0-23.184-23.159l-46.814.036s-.024-15.025-.06-16.063a88.722,88.722,0,0,0,52.787-69.044l6.251-34.528a23.169,23.169,0,1,0-45.595-8.267s-6.469,35.747-6.529,36.109a42.185,42.185,0,0,1-20.758,30.931,88.68,88.68,0,0,0-11.513-14.494s.085-2.558.072-3.838a96.167,96.167,0,0,0-192.335.108c0,1.291.084,3.886.084,3.886a89.762,89.762,0,0,0-11.417,14.506,42.175,42.175,0,0,1-20.878-30.943c-.048-.362-6.565-36.109-6.565-36.109a23.168,23.168,0,1,0-45.583,8.327l6.3,34.516a88.646,88.646,0,0,0,52.86,68.971c-.036,1.038-.048,16.063-.048,16.063l-46.813.036a23.171,23.171,0,1,0,.024,46.343l46.813-.036s0,10.391.012,10.8a88.715,88.715,0,0,0-52.739,69.019s-6.251,34.516-6.251,34.528a23.169,23.169,0,0,0,45.595,8.267l6.348-35.023c.072-.362.121-.724.169-1.086a42.215,42.215,0,0,1,15.532-27.371,148.683,148.683,0,0,0,63.528,77.516,96.067,96.067,0,0,0,98.7-.06A148.778,148.778,0,0,0,468.8,614.726a42.242,42.242,0,0,1,15.556,27.347c.048.362.109.724.169,1.086,0,0,6.384,34.986,6.4,35.023,2.1,11.55,13.2,19.792,24.837,18.875,13.408-1.05,23.147-14.024,20.746-27.19l-6.3-34.528a88.714,88.714,0,0,0-52.812-68.959V555.591l46.814-.036a23.17,23.17,0,0,0,23.159-23.184ZM415.975,468.626a6.81,6.81,0,0,1-6.058,4.538l-108.025.072a5.8,5.8,0,0,1-5.986-4.308,5.9,5.9,0,0,1,2.269-7.145,42.636,42.636,0,0,1,25.67-8.484l64.072-.036a42.679,42.679,0,0,1,26.333,8.967c.024.012.048.036.072.048a.6.6,0,0,1,.1.085,5.261,5.261,0,0,1,1.557,6.263Zm-60.149-88.353h.036a49.507,49.507,0,0,1,35.216,14.579,50.243,50.243,0,0,1,9.353,12.925,91.459,91.459,0,0,0-12.515-.857c-.012,0-.024-.012-.036,0l-64.059.036a92.166,92.166,0,0,0-12.563.869,50.005,50.005,0,0,1,44.569-27.552Zm-75.018,185-.024-49.964a53.566,53.566,0,0,0,21.108,4.26h.024l30.787-.012.109,134.358c-.809-.422.784.459,0,0-35.276-20.492-51.979-53.041-52-88.643ZM379.154,653.9l-.109-134.37,30.9-.024a53.135,53.135,0,0,0,21.084-4.3l.036,49.964A101.613,101.613,0,0,1,379.154,653.9Zm0,0" transform="translate(381.606 803.094)"/>
      <path id="Path_20" data-name="Path 20" d="M1455.858,1320.354,1404,1229.543a24.262,24.262,0,0,0-33.373-9.036,24.868,24.868,0,0,0-8.932,33.763l51.86,90.812a100.441,100.441,0,0,1,4.975,89.087l-58.475,135.761c-.42-.463-11.616-17.094-40.37-17.712h-14.937l52.458-493.974A56.666,56.666,0,0,0,1343.3,1014.7a55.32,55.32,0,0,0-41.312-18.613l-523.355.309c22.774-6.8,52.152-17.171,75.982-31,36.006-20.891,79.316-27.881,121.964-19.656l156.406,30.121a24.7,24.7,0,0,0,9.135-48.553l-97.09-18.7c64.646-71.916,112.676-151.876,143.021-238.234,10.255-29.194,23.423-62.725,23.411-94.133-.064-105.537-58.832-246.678-153.39-368.33C955.9,76.474,838.861.7,736.961,0h-.356c-101.9.811-218.863,76.73-320.878,208.281C321.309,330.038,262.694,471.244,262.744,576.807c.038,30.944,13.474,64.694,23.614,93.579,30.319,86.268,78.286,166.164,142.856,238.041L337.162,926.86a24.706,24.706,0,0,0,9.491,48.489l154.522-30.957c40.956-8.2,84.291-.849,122.053,20.7C647.594,979,677.3,989.547,700.014,996.433l-524.345.3a55.318,55.318,0,0,0-41.3,18.664,56.725,56.725,0,0,0-13.856,43.559l53.017,493.911-14.937.013a55.1,55.1,0,0,0-40.968,18.446L57.407,1435.6a100.224,100.224,0,0,1,4.771-90.477l54.442-94.339a24.868,24.868,0,0,0-8.779-33.8,24.267,24.267,0,0,0-33.411,8.882L19.988,1320.19a150.248,150.248,0,0,0-7.15,135.645l80.423,181.25a75.594,75.594,0,0,0,35.358,41.113,54.41,54.41,0,0,0,30.052,8.959h1161.09c11.426-.013,22.329-4.171,31.5-10.658a75.784,75.784,0,0,0,33.755-40.765l78.311-181.817a150.617,150.617,0,0,0-7.469-133.56ZM988.028,897.626s-33.7-9.564-84.52-1.467l-.051-63.253c3.6-3.566,13.346-13.374,13.346-13.374,43.513-43.7,97.447-97.853,101.263-178.315,10.789-.335,22.38-2.793,32.94-9.4,10.115-6.333,23.156-19.05,27.826-43.945l7.3-40.843c47.165,17.557,68.056,34.252,74.278,44.743A627.209,627.209,0,0,1,1142,653.831c-31.3,89.087-83.082,171.056-153.975,243.8ZM595.01,784.61c-40.205-40.276-85.767-85.933-87.166-149.238l-.076-120.1C580.595,501.17,662.735,493,737.026,492.854c75.385.051,158.734,8.354,232.3,22.732l.064,119.516c-1.323,63.3-46.834,109.013-87,149.353,0,0-74.087,80.759-143.645,80.759-68.323,0-143.733-80.6-143.733-80.6ZM458.961,592.084c-7.049,0-11.514-7.247-12.545-12.679l-8.626-47.884c4.72-1.3,18.957-4.994,21.133-5.522Zm559.271-.335-.038-65.338c1.425.36,15.637,4.055,20.993,5.548,0,0-8.385,46.8-8.4,46.906-1.3,7.3-4.873,12.254-12.558,12.885ZM736.809,49.428c172.844,1.352,388.018,277.777,421.365,476.908q-43.933-26.3-123.733-46.764C946.3,457.021,835.121,443.505,737,443.428c-97.726.193-208.583,13.76-296.551,36.286q-80.232,20.544-124.458,47.1C349.16,327.593,563.99,50.989,736.808,49.43ZM485.845,897.072C415.219,824.474,363.627,742.7,332.4,653.831a623.511,623.511,0,0,1-18.372-61.9c6.6-10.709,28.271-27.726,76.8-45.515l7.57,42.053c4.644,24.676,17.7,37.406,27.838,43.726,10.56,6.59,22.151,9.036,32.94,9.345,3.919,80.463,57.89,134.551,101.454,178.2,0,0,7.837,7.852,10.408,10.413l.038,64.617c-42.813-8.148-85.232,2.3-85.232,2.3Zm134.089,11.649-.013-35.295c31.032,22.848,68.909,40.65,118.567,41.216h.573c48.081-.6,85.118-17.364,115.565-39.2l.013,34.935a215.762,215.762,0,0,0-24.327,12.138c-28.258,16.386-68.769,27.713-84.889,31.82a26.119,26.119,0,0,1-13.029-.051c-16.018-4.222-56.389-15.807-85.156-32.231a233.871,233.871,0,0,0-27.3-13.336ZM169.077,1053.608a6.668,6.668,0,0,1,1.667-5.213,6.462,6.462,0,0,1,4.949-2.227l1126.33-.656a6.453,6.453,0,0,1,4.937,2.227,6.6,6.6,0,0,1,1.667,5.213l-53.03,499.293-1032.929.6Zm1150.654,583.449-1161.1.669a6.443,6.443,0,0,1-6.362-6.436s-.013-22.513-.013-22.526a6.505,6.505,0,0,1,6.362-6.449l1161.1-.669a6.443,6.443,0,0,1,6.362,6.436l.013,22.526A6.412,6.412,0,0,1,1319.731,1637.057Zm0,0" transform="translate(0)"/>
    </g>
  </g>
</svg>
