<svg xmlns="http://www.w3.org/2000/svg" xmlns:xlink="http://www.w3.org/1999/xlink" width="651" height="531" viewBox="0 0 651 531">
  <defs>
    <clipPath id="clip-path">
      <rect id="Rectangle_23" data-name="Rectangle 23" width="650" height="531" transform="translate(0.201 -1.068)"/>
    </clipPath>
    <linearGradient id="linear-gradient" y1="0.458" x2="0.488" y2="1" gradientUnits="objectBoundingBox">
      <stop offset="0" stop-color="#56b5e3" stop-opacity="0.549"/>
      <stop offset="1" stop-color="#7d58a5" stop-opacity="0.639"/>
    </linearGradient>
    <clipPath id="clip-linux">
      <rect width="651" height="531"/>
    </clipPath>
  </defs>
  <g id="linux" clip-path="url(#clip-linux)">
    <rect width="651" height="531" fill="#fff"/>
    <g id="cyberSecurity" transform="translate(-0.201 1.068)" clip-path="url(#clip-path)">
      <rect id="Rectangle_22" data-name="Rectangle 22" width="650" height="531" transform="translate(0.201 -1.068)" fill="url(#linear-gradient)"/>
      <g id="hacker" transform="translate(251.826 153.012)" opacity="0.81">
        <path id="Path_1" data-name="Path 1" d="M210.379,148.715a87,87,0,0,0,2.6-9.3A6.752,6.752,0,0,0,211.669,137a45.819,45.819,0,0,0-21.007-16.678l-23.081-9.117a46.143,46.143,0,0,0-33.962.025l-23.041,9.137a45.826,45.826,0,0,0-20.975,16.7,6.739,6.739,0,0,0-1.314,2.415,87.193,87.193,0,0,0,3.026,10.477c11.865,33.135,40.242,49.211,40.242,49.211l38.226-.021s28.322-16.089,40.164-49.194q.219-.619.432-1.242Zm0,0" transform="translate(-42.875 -53.855)" fill="#ecf0f7"/>
        <path id="Path_2" data-name="Path 2" d="M136.737,138.242l-4.37,0a6.751,6.751,0,0,0-6.647,8.133l1.722,9.449c1.337,7,9.318,3.8,9.318,3.8Zm0,0" transform="translate(-65.625 -71.215)" fill="#efd0af"/>
        <path id="Path_3" data-name="Path 3" d="M303.211,138.151l4.37,0a6.749,6.749,0,0,1,6.656,8.126l-1.711,9.449c-1.327,7.005-9.313,3.809-9.313,3.809Zm0,0" transform="translate(-158.423 -71.167)" fill="#fae0c1"/>
        <path id="Path_4" data-name="Path 4" d="M203.612,289.666l14.931-14.042a4.33,4.33,0,0,0-2.177-7.413c-4.057-.813-6.979-5.518-6.982-9.657l-.011-18.442-19.657.012-19.659.011.011,18.442c0,4.139-2.914,8.847-6.97,9.664a4.332,4.332,0,0,0-2.172,7.416l14.949,14.025a20.258,20.258,0,0,0,27.737-.016Zm0,0" transform="translate(-81.956 -122.2)" fill="#fae0c1"/>
        <path id="Path_5" data-name="Path 5" d="M243.578,268.215c-4.059-.813-6.981-5.518-6.982-9.657l-.011-18.44-15.531.009.009,18.431c0,4.139,2.925,8.844,6.982,9.657a4.33,4.33,0,0,1,2.178,7.413L215.29,289.67a20.175,20.175,0,0,1-6.111,3.955,20.258,20.258,0,0,0,21.643-3.955l14.933-14.042a4.33,4.33,0,0,0-2.177-7.413Zm0,0" transform="translate(-108.419 -122.204)" fill="#efd0af"/>
        <path id="Path_6" data-name="Path 6" d="M207.943,39.1a34.415,34.415,0,0,0-48.44.028c-7.243,6.706-11.165,16.66-11.16,26.931l0,1.24h.009l.021,35.8c.2,9.984,7.1,16.891,13.09,22.824,5.513,5.458,11.763,11.906,22.316,12.026,10.549-.132,16.794-6.585,22.3-12.052,5.984-5.94,12.871-12.855,13.065-22.838l-.021-35.8h.011l0-1.242c-.005-10.269-3.937-20.218-11.19-26.917Zm0,0" transform="translate(-75.793 -15.988)" fill="#fae0c1"/>
        <path id="Path_7" data-name="Path 7" d="M252.54,74.856h.009v-1.24c-.007-10.271-3.939-20.22-11.19-26.918a41.169,41.169,0,0,0-4.62-3.7V74.856l-.009-24.073.019,59.871c-.194,9.984-7.081,16.9-13.065,22.84-3.973,3.943-8.328,8.4-14.407,10.627a23.591,23.591,0,0,0,7.917,1.425c10.551-.132,16.794-6.587,22.3-12.052,5.984-5.94,12.871-12.857,13.065-22.84Zm0,0" transform="translate(-108.264 -23.581)" fill="#efd0af"/>
        <path id="Path_8" data-name="Path 8" d="M180.244,284.68l-32.657-5.887a31.106,31.106,0,0,0-20.309,3.084,59.87,59.87,0,0,1-13.334,4.707,7.808,7.808,0,0,1-3.684-.015,62.867,62.867,0,0,1-13.328-4.745,31.072,31.072,0,0,0-20.324-3.211l-30.114,5.645c-4.481.84-6.141,1.863-7.245,3.346L9.929,335.147a16.166,16.166,0,0,0-.872,15.494L20.891,375.6a7.449,7.449,0,0,0,7.05,4.74l168.383-.092a7.441,7.441,0,0,0,7.065-4.8l11.521-25.036A16.163,16.163,0,0,0,214,335.156l-29.03-47.58a7.506,7.506,0,0,0-4.725-2.9Zm0,0" transform="translate(-4.106 -137.113)" fill="#ecf0f7"/>
        <path id="Path_9" data-name="Path 9" d="M320.381,375.66l10.909-25.035a16.956,16.956,0,0,0-.862-15.256l-27.488-47.58a7.062,7.062,0,0,0-4.474-2.9l-30.922-5.887a28.086,28.086,0,0,0-19.23,3.082,45.038,45.038,0,0,1-8.512,3.542h0c.817.086,38.874,8.716,38.874,8.716a7.067,7.067,0,0,1,4.474,2.9l27.487,43.062a16.951,16.951,0,0,1,.862,15.256l-10.853,24.909,13.047-.007a7.065,7.065,0,0,0,6.689-4.8Zm0,0" transform="translate(-120.408 -137.325)" fill="#ecf0f7"/>
        <path id="Path_10" data-name="Path 10" d="M211.223,393.287l-157.678.083-9.122-78.722a4.422,4.422,0,0,1,4.568-4.773l166.685-.09a4.424,4.424,0,0,1,4.575,4.77Zm0,0" transform="translate(-24.347 -154.49)" fill="#ededed"/>
        <path id="Path_11" data-name="Path 11" d="M375.286,309.781l-11.161.007-8.972,83.5h15.962l8.459-78.733a4.309,4.309,0,0,0-4.287-4.77Zm0,0" transform="translate(-183.665 -154.487)" fill="#d6d6d6"/>
        <path id="Path_12" data-name="Path 12" d="M215.321,490.267H43.794A4.418,4.418,0,0,1,39.24,486l0-3.087a4.419,4.419,0,0,1,4.549-4.274l171.526-.092a4.419,4.419,0,0,1,4.552,4.269l0,3.087A4.493,4.493,0,0,1,215.321,490.267Zm0,0" transform="translate(-21.518 -247.037)" fill="#d6d6d6"/>
        <path id="Path_13" data-name="Path 13" d="M395.358,482.817a4.27,4.27,0,0,0-4.274-4.267l-11.6.005,0,11.629,11.6.085a4.351,4.351,0,0,0,4.269-4.364Zm0,0" transform="translate(-197.011 -247.039)" fill="#bebebe"/>
        <path id="Path_16" data-name="Path 16" d="M212.773,84.947c.049-.212.1-.425.145-.639v0c.011-.406.015-.812.015-1.219C212.916,54.647,178.973,7.692,150.5,7.5c-28.467.224-62.357,47.218-62.339,75.659q0,.535.012,1.065c.021.067.037.12.044.155.042.185.085.37.125.555,2.551-9.285,35.12-16.613,62.193-16.665,27.155.021,59.845,7.355,62.234,16.676Zm0,0" transform="translate(-42.813 -4.113)" fill="#fff"/>
        <path id="Path_17" data-name="Path 17" d="M216.2,7.5a30.172,30.172,0,0,0-8.237,1.277C231.516,15.666,256.183,49,261.2,74.379c9.505,2.861,16.235,6.529,17.27,10.568.049-.212.1-.424.145-.639v0c.011-.4.015-.811.015-1.217C278.612,54.647,244.67,7.693,216.2,7.5Zm0,0" transform="translate(-106.263 -4.113)" fill="#adb7b9"/>
        <path id="Path_20" data-name="Path 20" d="M212.809,193l-7.581-13.274a3.546,3.546,0,0,0-4.878-1.321,3.635,3.635,0,0,0-1.306,4.935l7.581,13.274a14.682,14.682,0,0,1,.727,13.022L198.8,229.482c-.061-.068-1.7-2.5-5.9-2.589H190.72l7.668-72.206a8.283,8.283,0,0,0-2.033-6.365,8.086,8.086,0,0,0-6.039-2.721l-76.5.045a53.818,53.818,0,0,0,11.107-4.531,25.766,25.766,0,0,1,17.828-2.873l22.862,4.4a3.611,3.611,0,1,0,1.335-7.1l-14.192-2.733a103.1,103.1,0,0,0,20.906-34.824c1.5-4.267,3.424-9.169,3.422-13.76-.009-15.427-8.6-36.058-22.422-53.84C139.728,11.178,122.62.1,107.725,0h-.052c-14.9.119-31.992,11.216-46.9,30.445-13.8,17.8-22.369,38.438-22.362,53.869.006,4.523,1.97,9.457,3.452,13.679a103.106,103.106,0,0,0,20.882,34.8l-13.456,2.694a3.611,3.611,0,1,0,1.387,7.088l22.587-4.525A25.82,25.82,0,0,1,91.1,141.071a57.106,57.106,0,0,0,11.224,4.581l-76.645.044a8.086,8.086,0,0,0-6.037,2.728,8.292,8.292,0,0,0-2.025,6.367l7.75,72.2-2.183,0a8.054,8.054,0,0,0-5.988,2.7l-8.8-19.84a14.65,14.65,0,0,1,.7-13.225l7.958-13.79a3.635,3.635,0,0,0-1.283-4.941,3.547,3.547,0,0,0-4.884,1.3L2.922,192.977A21.962,21.962,0,0,0,1.877,212.8L13.633,239.3a11.05,11.05,0,0,0,5.168,6.01,7.953,7.953,0,0,0,4.393,1.31H192.915a8.048,8.048,0,0,0,4.6-1.558,11.078,11.078,0,0,0,4.934-5.959L213.9,212.524A22.016,22.016,0,0,0,212.809,193Zm-68.385-61.791a31.313,31.313,0,0,0-12.355-.214l-.007-9.246c.526-.521,1.951-1.955,1.951-1.955,6.36-6.388,14.244-14.3,14.8-26.065a9.539,9.539,0,0,0,4.815-1.374,9.189,9.189,0,0,0,4.067-6.424l1.067-5.97c6.894,2.566,9.948,5.007,10.857,6.54a91.689,91.689,0,0,1-2.691,9.071,97.119,97.119,0,0,1-22.507,35.637Zm-57.449-16.52C81.1,108.8,74.438,102.128,74.234,92.875l-.011-17.555a184.633,184.633,0,0,1,33.511-3.277,184.276,184.276,0,0,1,33.956,3.323l.009,17.47c-.193,9.253-6.846,15.935-12.717,21.831,0,0-10.83,11.8-21,11.8-9.987,0-21.01-11.782-21.01-11.782ZM67.089,86.547c-1.03,0-1.683-1.059-1.834-1.853l-1.261-7c.69-.19,2.771-.73,3.089-.807Zm81.751-.049-.006-9.551c.208.053,2.286.593,3.069.811,0,0-1.226,6.841-1.228,6.856a1.962,1.962,0,0,1-1.836,1.883ZM107.7,7.225c25.265.2,56.718,40.6,61.592,69.711q-6.422-3.844-18.087-6.836a186.619,186.619,0,0,0-43.478-5.283,186.818,186.818,0,0,0-43.348,5.3q-11.728,3-18.192,6.885C51.039,47.885,82.441,7.453,107.7,7.225Zm-36.684,123.9a97.063,97.063,0,0,1-22.43-35.555A91.145,91.145,0,0,1,45.9,86.525c.965-1.565,4.132-4.053,11.226-6.653l1.107,6.147a9.159,9.159,0,0,0,4.069,6.392,9.514,9.514,0,0,0,4.815,1.366c.573,11.762,8.462,19.668,14.83,26.048,0,0,1.146,1.148,1.521,1.522l.006,9.445a33.083,33.083,0,0,0-12.459.336Zm19.6,1.7,0-5.159a28.908,28.908,0,0,0,17.331,6.025h.084a28.759,28.759,0,0,0,16.893-5.73l0,5.107a31.538,31.538,0,0,0-3.556,1.774,54.607,54.607,0,0,1-12.409,4.651,3.818,3.818,0,0,1-1.9-.007A57.7,57.7,0,0,1,94.61,134.78a34.183,34.183,0,0,0-3.991-1.949Zm-65.9,21.179a.975.975,0,0,1,.244-.762.945.945,0,0,1,.723-.326l164.64-.1a.943.943,0,0,1,.722.326.965.965,0,0,1,.244.762L183.536,226.9l-150.987.088ZM192.91,239.295l-169.722.1a.942.942,0,0,1-.93-.941s0-3.291,0-3.293a.951.951,0,0,1,.93-.943l169.722-.1a.942.942,0,0,1,.93.941l0,3.293a.937.937,0,0,1-.93.943Zm0,0" transform="translate(-0.001)"/>
      </g>
    </g>
    <g id="linux-penguin" transform="translate(289.789 317.676)">
      <g id="Group_18" data-name="Group 18" transform="translate(43.211 0)">
        <path id="Path_123" data-name="Path 123" d="M243.684,131.973c0,.136.056.193.169.169.09,0,.186-.105.287-.321a.6.6,0,0,1,.524-.355h-.338Q243.684,131.57,243.684,131.973Z" transform="translate(-222.51 -117.581)"/>
        <path id="Path_124" data-name="Path 124" d="M271.512,131a.557.557,0,0,1,.592.152c.169.169.3.243.388.22a.2.2,0,0,0,.1-.305Q272.322,130.627,271.512,131Z" transform="translate(-247.399 -117.009)"/>
        <path id="Path_125" data-name="Path 125" d="M93.168,49.865c-.067-.043-.253-.152-.557-.321s-.546-.314-.727-.44a5.107,5.107,0,0,1-.71-.641,3.917,3.917,0,0,1-.692-.963,7.687,7.687,0,0,1-.49-1.367,8.181,8.181,0,0,1-.27-1.909,2.212,2.212,0,0,0-.524,1.6,5.406,5.406,0,0,0,.507,2.449A2.782,2.782,0,0,0,91.377,49.9a8.274,8.274,0,0,1,1.74.794,1.931,1.931,0,0,1,.845.962q.185.54-.625,1.165a9.351,9.351,0,0,1-2.6,1.234,22.1,22.1,0,0,0-3.5,1.436,24.245,24.245,0,0,0-3.024,2.246,4.9,4.9,0,0,1-2.872,1.2,2.781,2.781,0,0,1-2.466-1.115,4.268,4.268,0,0,1-.608-3.4,16.228,16.228,0,0,0-.034-6.588A6.713,6.713,0,0,1,78,44.562c.2-.946.518-1.5.946-1.655s.889.181,1.385,1.014q.068.169.3.659a4.52,4.52,0,0,0,.389.693,6.4,6.4,0,0,0,.456.524,1.678,1.678,0,0,0,.76.455,4.6,4.6,0,0,0,1.064.169,3.91,3.91,0,0,0,2.061-.473,4.155,4.155,0,0,0,1.368-1.132q.456-.624.912-1.2a1.611,1.611,0,0,1,.794-.641q.372-.067.676-.743a5.926,5.926,0,0,0,.405-1.875A11.888,11.888,0,0,0,89.35,37.5a29.273,29.273,0,0,0-2.01-6.453,19.069,19.069,0,0,0-3.361-5.507,18.67,18.67,0,0,1-4.493-7.364,21.776,21.776,0,0,1-1.014-7.23,10.6,10.6,0,0,0-1-4.983,9.781,9.781,0,0,0-3.091-4.1,8.857,8.857,0,0,0-3.007-1.4A12.636,12.636,0,0,0,67.8,0a7.433,7.433,0,0,0-3.514.708A7.5,7.5,0,0,0,60.7,4.242a12.428,12.428,0,0,0-.811,5.117q.135,6.689.54,10.473-.474,1.758-4.189,6.588a8.291,8.291,0,0,0-1.317,1.824,19.029,19.029,0,0,0-1.013,2.061q-.372.912-1,2.635t-.9,2.432a8.728,8.728,0,0,1-.743,1.419,9.64,9.64,0,0,0-.811,1.588,5.287,5.287,0,0,0-.338,1.757,5.653,5.653,0,0,0,.067,1.283q.135.811.507.507,1.52-1.148,3.818,1.352a71.812,71.812,0,0,1,5.709,8.177q.337.574.676,1.233a9.479,9.479,0,0,1,.642,1.756A6.161,6.161,0,0,1,61.8,56.42a2.5,2.5,0,0,1-.777,1.622,3.662,3.662,0,0,1-2.179.945,5.612,5.612,0,0,1-1.875-.134q-1.1-.238-2.787-.778t-2.5-.743q-1.183-.272-3.361-.693t-2.855-.624q-1.149-.3-1.25-.879a2.972,2.972,0,0,1,.473-1.622,4.436,4.436,0,0,0,.574-1.655,2.784,2.784,0,0,0-.034-.743,3,3,0,0,0-.152-.575c-.056-.134-.152-.338-.287-.607a5.2,5.2,0,0,1-.27-.608q-.608-1.419-.169-1.926c.2-.293.687-.407,1.453-.338a4.39,4.39,0,0,0,2.8-.507q1.79-1.116,1.081-3.582a2.993,2.993,0,0,1-.405,1.723,4.68,4.68,0,0,1-1.419,1.182,4.757,4.757,0,0,1-2.027.405,3.4,3.4,0,0,0-1.926.473,1.214,1.214,0,0,0-.355.912,4.247,4.247,0,0,0,.152,1.234q.169.625.338,1.436a5.27,5.27,0,0,1,.135,1.352,10.111,10.111,0,0,1-.608,1.841,3.071,3.071,0,0,0-.237,2.246,1.664,1.664,0,0,0,.574.66,3.739,3.739,0,0,0,1.132.489q.726.2,1.334.321t1.689.3q1.081.186,1.723.322a34.639,34.639,0,0,1,4.933,1.452,15.472,15.472,0,0,0,3.75,1.048,3.76,3.76,0,0,0,1.807-.388,6.546,6.546,0,0,0,1.469-.963,6.079,6.079,0,0,1,1.807-1.014,7.752,7.752,0,0,1,2.686-.507c.451-.024,1.1-.05,1.959-.085s1.5-.05,1.926-.05q2.9,0,4.392.033a3.9,3.9,0,0,1,1.587.321,1.506,1.506,0,0,1,.743.66,4.341,4.341,0,0,0,.558.86,2.9,2.9,0,0,0,1,.794,5.986,5.986,0,0,0,3.007.489,3.881,3.881,0,0,0,2.3-.659A32.589,32.589,0,0,1,86.258,57.7a17.73,17.73,0,0,1,2.889-1.893c.18-.091.484-.236.912-.439s.788-.377,1.081-.524.647-.332,1.064-.557a8.791,8.791,0,0,0,1.014-.626,10.054,10.054,0,0,0,.794-.659,1.788,1.788,0,0,0,.524-.743,1.927,1.927,0,0,0,.084-.76,1.455,1.455,0,0,0-.405-.811A4.407,4.407,0,0,0,93.168,49.865ZM76.107,18.042c.068-.043.112-.061.135-.05a.764.764,0,0,1,.135.134c.068.079.129.152.186.22s.135.158.237.269a1.387,1.387,0,0,0,.321.271,1.26,1.26,0,0,0,.49.186,1.013,1.013,0,0,1,.439.169.686.686,0,0,1,.22.388.935.935,0,0,1-.118.675.486.486,0,0,1-.49.271,2.584,2.584,0,0,1-1.317-1.064Q75.636,18.582,76.107,18.042ZM71.918,4.918a1.08,1.08,0,0,0,.2-.355.77.77,0,0,0,.017-.422.741.741,0,0,1,.034-.44.426.426,0,0,1,.389-.253,1.384,1.384,0,0,1,.811.507c.067.045.174.114.321.2a1.294,1.294,0,0,1,.3.236.294.294,0,0,1,.085.169.423.423,0,0,1-.3.236,1.858,1.858,0,0,1-.507.067.671.671,0,0,0-.3.034,1.67,1.67,0,0,0-.507.3c-.158.136-.282.236-.372.305a.206.206,0,0,1-.27,0c-.09-.136-.124-.231-.1-.288A1.709,1.709,0,0,1,71.918,4.918ZM55.567,30.2a3.214,3.214,0,0,0,.337-.44,1.989,1.989,0,0,0,.186-.455,2.7,2.7,0,0,1,.152-.422.165.165,0,0,1,.2-.1.445.445,0,0,1,.1.067.121.121,0,0,1,.034.085v.1a.731.731,0,0,1-.017.134.627.627,0,0,1-.05.153,1,1,0,0,0-.067.2c-.023.091-.045.169-.067.236a1.686,1.686,0,0,1-.422.608q-.288.272-.422.236C55.4,30.565,55.41,30.429,55.567,30.2ZM77.442,48.565a11.454,11.454,0,0,1,.22,2.482,24.7,24.7,0,0,1-.456,3.041q-.389,1.96-.49,2.6c-.473-.024-.743-.2-.811-.524a2.327,2.327,0,0,1,.2-1.267,14.129,14.129,0,0,0,.777-3.108q.068-1.554-.337-1.757-.372-.27-1.149,1.014-1.487,2.433-5.98,2.94-4.054.538-5.608-1.217a.647.647,0,0,0-.676-.085.962.962,0,0,0-.439.321q-.034.067.067.2c.067.09.174.224.321.405a2.966,2.966,0,0,1,.355.541q1.318,2.3-.237,3.108a9.181,9.181,0,0,0-.237-2.382,6.163,6.163,0,0,0-.946-1.824,15.623,15.623,0,0,1-.98-1.5,2.115,2.115,0,0,0,2.01-2.229,1.863,1.863,0,0,0-.591-1.284q-.3-.3-3.142-2.584A35.053,35.053,0,0,1,55.8,42.4q-.136-.135-.811-.676a2.738,2.738,0,0,1-.845-.946q-1.554-3.411-.337-5.609L53.945,35q.169-.032.034.608a6.706,6.706,0,0,0-.135,1.893,4.667,4.667,0,0,0,1.216,3.175q.71.711.98-.1a5,5,0,0,0,.185-1.993,23.179,23.179,0,0,1,.051-2.33,17.415,17.415,0,0,1,1.6-4.764q1.334-2.839,2.112-3.041a2.875,2.875,0,0,1-.388-2.129,5.9,5.9,0,0,1,.71-1.96q.49-.81,1-1.874a4.518,4.518,0,0,0,.507-1.909,1.188,1.188,0,0,1,.034-.338q.1-.3.845.743a8.406,8.406,0,0,0,2.129,2.467,1.729,1.729,0,0,0,1.655-.033,13.991,13.991,0,0,0,2.247-1.453,15.349,15.349,0,0,1,2.28-1.487,2.151,2.151,0,0,0,.321-.152c.146-.078.259-.134.338-.169s.18-.085.3-.152.22-.124.287-.169a2.176,2.176,0,0,0,.2-.152.455.455,0,0,0,.135-.169.427.427,0,0,0,.033-.152.447.447,0,0,0-.287-.372.918.918,0,0,0-.591.085,7.8,7.8,0,0,0-.828.405c-.3.169-.642.361-1.014.574s-.749.412-1.132.591a9.748,9.748,0,0,1-1.217.474,5.035,5.035,0,0,1-1.216.236,3.089,3.089,0,0,1-2.264-.743,2.5,2.5,0,0,1-.575-.642c-.023-.09.079-.11.3-.067a9.03,9.03,0,0,0,2.669.067,10.434,10.434,0,0,0,2.364-.776q.3-.135,1.537-.66a19.931,19.931,0,0,1,1.909-.726.913.913,0,0,0,.557-.321.486.486,0,0,0,.1-.405.468.468,0,0,0-.22-.288c-.248-.134-.473-.045-.676.271a1.709,1.709,0,0,1-.71.591,6.628,6.628,0,0,1-1,.44c-.3.1-.693.219-1.165.354s-.732.215-.777.237a10.249,10.249,0,0,1-3.446.507,3.635,3.635,0,0,1-1.2-.22,1.326,1.326,0,0,1-.625-.44,5.215,5.215,0,0,0-.54-.641,3.751,3.751,0,0,0-.845-.659.5.5,0,0,1-.253-.608,1.914,1.914,0,0,1,.524-.912c.022-.023.253-.162.693-.422a2.811,2.811,0,0,0,.929-.794,3.735,3.735,0,0,1,1.047-.979,5.274,5.274,0,0,0,.05-.743,2.905,2.905,0,0,0-.321-1.319,1.026,1.026,0,0,0-.912-.708,1.21,1.21,0,0,0-1.149.473,2.023,2.023,0,0,0-.3,1.249,2.444,2.444,0,0,0,.321,1.132c.191.327.366.489.524.489.248-.023.326.067.237.271a.916.916,0,0,1-.54.473c-.158.046-.332-.107-.524-.455a4.481,4.481,0,0,1-.439-1.267,4.844,4.844,0,0,1-.118-1.251,5.12,5.12,0,0,1,.557-2.01,1.459,1.459,0,0,1,1.4-.929,1.8,1.8,0,0,1,1.52,1.149,6.451,6.451,0,0,1,.54,3.041c.067.158.242.214.524.169a5.021,5.021,0,0,1,1.115-.017,1.533,1.533,0,0,1,1,.355,1.477,1.477,0,0,0,.034-.507q-.608-4.258,3.007-4.528a4.724,4.724,0,0,1,.912.253,3.115,3.115,0,0,1,.794.507,2.7,2.7,0,0,1,.71,1.031,7.622,7.622,0,0,1,.456,1.689v1.249q0,1.083-.439,1.217-.709.237-1.014-.018t.067-.895a2.526,2.526,0,0,0-.135-1.96,1.567,1.567,0,0,0-1.723-1.014,1.324,1.324,0,0,0-1.217.912,3.34,3.34,0,0,0-.27,1.723c.067.564.191.855.372.878a7.4,7.4,0,0,1,1.2.541,6.669,6.669,0,0,0,1.5.608q1.318.27,1.5.845a2.958,2.958,0,0,1-.152,1.672,3.5,3.5,0,0,0,.3,3.158,9.2,9.2,0,0,0,.794,1.115,8.091,8.091,0,0,1,1,1.893,21.816,21.816,0,0,1,1.047,3.48c.022.023.107.1.253.236a3.371,3.371,0,0,1,.439.507c.146.2.321.479.524.827a9.445,9.445,0,0,1,.659,1.537,22.157,22.157,0,0,1,.659,2.331,16.283,16.283,0,0,1,.389,3.615,10.652,10.652,0,0,0,.27,2.821q.253.76,1.3.626A1.726,1.726,0,0,0,83.1,38.55q1.115-3.917-1.824-9.391a9.766,9.766,0,0,0-1.926-2.8,7.969,7.969,0,0,1,2.432,2.534,10.036,10.036,0,0,1,1.588,3.48c.022.112.085.412.186.895s.157.767.169.845.055.31.135.693a4.931,4.931,0,0,1,.118.743c0,.114.011.332.034.659a3.22,3.22,0,0,1-.017.76c-.034.181-.067.422-.1.727a5.545,5.545,0,0,1-.169.878q-.119.424-.253.929,1.858.811,1.858,1.419a4.121,4.121,0,0,0-2.027-.76,4.21,4.21,0,0,0-2.449.355A1.909,1.909,0,0,0,79.685,42.3a2.134,2.134,0,0,0-1.723.608,3.7,3.7,0,0,0-.777,2.382A18.322,18.322,0,0,0,77.442,48.565ZM63.506,11.893a.316.316,0,0,1-.169-.2q0-.3.3-.236.2.069.388.507a1.781,1.781,0,0,1,.085,1.014.09.09,0,0,1-.1.1c-.248,0-.338-.224-.27-.676C63.811,12.062,63.731,11.893,63.506,11.893Zm8.75.541-.068.1c-.18.114-.27.136-.27.068q-.136-.912-.608-1.048l-.135-.067c-.158-.136-.08-.214.237-.236.067-.023.169.01.3.1a1.3,1.3,0,0,1,.372.422A1.275,1.275,0,0,1,72.256,12.434Z" transform="translate(-43.211 0)"/>
      </g>
    </g>
  </g>
</svg>
