<svg xmlns="http://www.w3.org/2000/svg" xmlns:xlink="http://www.w3.org/1999/xlink" width="651" height="531" viewBox="0 0 651 531">
  <defs>
    <linearGradient id="linear-gradient" y1="0.458" x2="0.488" y2="1" gradientUnits="objectBoundingBox">
      <stop offset="0" stop-color="#56b5e3" stop-opacity="0.549"/>
      <stop offset="1" stop-color="#7d58a5" stop-opacity="0.639"/>
    </linearGradient>
    <clipPath id="clip-mobile">
      <rect width="651" height="531"/>
    </clipPath>
  </defs>
  <g id="mobile" clip-path="url(#clip-mobile)">
    <rect width="651" height="531" fill="#fff"/>
    <g id="Group_1" data-name="Group 1" transform="translate(0.052 -0.18)">
      <rect id="Rectangle_1" data-name="Rectangle 1" width="651" height="531" transform="translate(-0.052 0.18)" fill="url(#linear-gradient)"/>
    </g>
    <g id="mobile-2" data-name="mobile" transform="translate(276 202.634)">
      <g id="Group_5" data-name="Group 5">
        <g id="Group_4" data-name="Group 4">
          <path id="Path_25" data-name="Path 25" d="M71.45,0H23.817A23.843,23.843,0,0,0,0,23.817V139.5a23.843,23.843,0,0,0,23.817,23.817h6.8a3.4,3.4,0,1,0,0-6.805h-6.8A17.036,17.036,0,0,1,6.805,139.5V23.817A17.036,17.036,0,0,1,23.817,6.805H71.45A17.036,17.036,0,0,1,88.462,23.817V57.841a3.4,3.4,0,1,0,6.805,0V23.817A23.843,23.843,0,0,0,71.45,0Z"/>
        </g>
      </g>
      <g id="Group_7" data-name="Group 7" transform="translate(0 27.219)">
        <g id="Group_6" data-name="Group 6">
          <path id="Path_26" data-name="Path 26" d="M91.865,85.333H3.4a3.4,3.4,0,1,0,0,6.805H91.865a3.4,3.4,0,1,0,0-6.805Z" transform="translate(0 -85.333)"/>
        </g>
      </g>
      <g id="Group_9" data-name="Group 9" transform="translate(0 122.486)">
        <g id="Group_8" data-name="Group 8">
          <path id="Path_27" data-name="Path 27" d="M61.243,384H3.4a3.4,3.4,0,1,0,0,6.8H61.243a3.4,3.4,0,1,0,0-6.8Z" transform="translate(0 -384)"/>
        </g>
      </g>
      <g id="Group_11" data-name="Group 11" transform="translate(34.024 13.61)">
        <g id="Group_10" data-name="Group 10">
          <path id="Path_28" data-name="Path 28" d="M130.483,42.667H110.068a3.4,3.4,0,1,0,0,6.8h20.414a3.4,3.4,0,1,0,0-6.8Z" transform="translate(-106.666 -42.667)" fill="#f43a45"/>
        </g>
      </g>
      <g id="Group_13" data-name="Group 13" transform="translate(68.15 13.61)">
        <g id="Group_12" data-name="Group 12">
          <path id="Path_29" data-name="Path 29" d="M217.09,42.667h-.068a3.375,3.375,0,0,0-3.368,3.4,3.419,3.419,0,1,0,3.436-3.4Z" transform="translate(-213.654 -42.667)"/>
        </g>
      </g>
      <g id="Group_15" data-name="Group 15" transform="translate(31.202 58.15)">
        <g id="Group_14" data-name="Group 14">
          <path id="Path_30" data-name="Path 30" d="M220.2,214.214,194.616,186.1a13.026,13.026,0,0,0-18.42.041,12.735,12.735,0,0,0-3.293,5.628,13.036,13.036,0,0,0-20.421,6.8,13.043,13.043,0,0,0-20.38,6.676L120.042,193.18a13.025,13.025,0,0,0-18.42,18.42l46.327,46.327-27.478,4.314a15.243,15.243,0,0,0-13.024,15.018,10.22,10.22,0,0,0,10.207,10.207h64.162A37.179,37.179,0,0,0,208.28,276.5l10.7-10.7a37.379,37.379,0,0,0,1.218-51.587Zm-6.029,46.776-10.7,10.7a30.42,30.42,0,0,1-21.653,8.969H117.653a3.4,3.4,0,0,1-3.4-3.4,8.431,8.431,0,0,1,7.227-8.295L155.6,263.6a3.4,3.4,0,0,0,1.878-5.764l-51.056-51.056a6.222,6.222,0,0,1,8.806-8.792l34.045,34.045a3.4,3.4,0,0,0,4.811-4.811l-13.9-13.9a6.222,6.222,0,0,1,8.8-8.8l13.9,13.9a3.4,3.4,0,0,0,5.8-2.409,3.368,3.368,0,0,0-.966-2.375l-7.1-7.1a6.222,6.222,0,0,1,8.8-8.8l7.1,7.1.007.007.007.007.007.007.007.007h.007a.007.007,0,0,1,.007.007A3.4,3.4,0,0,0,181.305,200l-.292-.292a6.223,6.223,0,0,1,8.683-8.914l25.477,28a30.582,30.582,0,0,1-1,42.2Z" transform="translate(-97.819 -182.302)"/>
        </g>
      </g>
    </g>
  </g>
</svg>
