<svg xmlns="http://www.w3.org/2000/svg" xmlns:xlink="http://www.w3.org/1999/xlink" width="651" height="531" viewBox="0 0 651 531">
  <defs>
    <linearGradient id="linear-gradient" y1="0.458" x2="0.488" y2="1" gradientUnits="objectBoundingBox">
      <stop offset="0" stop-color="#56b5e3" stop-opacity="0.549"/>
      <stop offset="1" stop-color="#7d58a5" stop-opacity="0.639"/>
    </linearGradient>
    <clipPath id="clip-seo">
      <rect width="651" height="531"/>
    </clipPath>
  </defs>
  <g id="seo" clip-path="url(#clip-seo)">
    <rect width="651" height="531" fill="#fff"/>
    <g id="Group_1" data-name="Group 1" transform="translate(0.052 -0.18)">
      <rect id="Rectangle_1" data-name="Rectangle 1" width="651" height="531" transform="translate(-0.052 0.18)" fill="url(#linear-gradient)"/>
    </g>
    <path id="Path_126" data-name="Path 126" d="M0,0H94V97H0Z" transform="translate(262 194)" fill="#f43a45"/>
    <rect id="Rectangle_10" data-name="Rectangle 10" width="126" height="143" transform="matrix(0.695, -0.719, 0.719, 0.695, 266.064, 288.637)" fill="#fff"/>
    <g id="seo-2" data-name="seo" transform="translate(254.915 185.295)">
      <g id="Group_3" data-name="Group 3">
        <g id="Group_2" data-name="Group 2">
          <path id="Path_7" data-name="Path 7" d="M194,95.773,107.635,9.407A31.9,31.9,0,0,0,84.928,0H18.348A18.366,18.366,0,0,0,0,18.348v66.58a31.9,31.9,0,0,0,9.407,22.707L95.773,194a26.734,26.734,0,0,0,37.807,0L194,133.58a26.735,26.735,0,0,0,0-37.808Zm-6.486,31.321-60.42,60.42c-6.54,6.54-18.295,6.54-24.835,0L15.893,101.148A22.791,22.791,0,0,1,9.174,84.928V18.348a9.186,9.186,0,0,1,9.174-9.174h66.58a22.791,22.791,0,0,1,16.221,6.719l86.366,86.366a17.563,17.563,0,0,1,0,24.835Z"/>
          <path id="Path_8" data-name="Path 8" d="M61.014,42.667A18.348,18.348,0,1,0,79.363,61.015,18.367,18.367,0,0,0,61.014,42.667Zm0,27.522a9.174,9.174,0,1,1,9.174-9.174A9.186,9.186,0,0,1,61.014,70.189Z" transform="translate(-24.318 -24.319)"/>
          <path id="Path_9" data-name="Path 9" d="M148.754,161.912a13.778,13.778,0,0,0,0-19.463,4.588,4.588,0,0,1,0-6.482l3.252-3.248a4.69,4.69,0,0,1,6.482,0,4.574,4.574,0,0,1,1.344,3.243,4.528,4.528,0,0,1-1.344,3.239,4.59,4.59,0,1,0,6.487,6.5,13.761,13.761,0,0,0,0-19.463,14.1,14.1,0,0,0-19.459,0l-3.252,3.248a13.785,13.785,0,0,0,0,19.459,4.6,4.6,0,0,1,0,6.491l-3.248,3.243a4.689,4.689,0,0,1-6.482,0,4.574,4.574,0,0,1-1.344-3.243,4.521,4.521,0,0,1,1.344-3.239,4.59,4.59,0,1,0-6.487-6.5,13.761,13.761,0,1,0,19.459,19.463Z" transform="translate(-69.547 -69.727)"/>
          <path id="Path_10" data-name="Path 10" d="M207.307,207.307a4.585,4.585,0,0,0,0-6.486l-6.486-6.486,9.73-9.73,9.734,9.73a4.586,4.586,0,1,0,6.486-6.486l-12.977-12.973a4.585,4.585,0,0,0-6.486,0l-32.432,32.432a4.585,4.585,0,0,0,0,6.486l12.973,12.977a4.587,4.587,0,1,0,6.487-6.486l-9.73-9.734,9.73-9.73,6.486,6.486a4.585,4.585,0,0,0,6.486,0Z" transform="translate(-98.906 -98.907)"/>
          <path id="Path_11" data-name="Path 11" d="M266.21,246.736v0L246.742,266.2a13.763,13.763,0,0,0,19.468,19.459L285.669,266.2a13.763,13.763,0,1,0-19.459-19.468Zm12.973,12.982-19.459,19.459a4.588,4.588,0,0,1-6.491-6.486L272.7,253.232a4.586,4.586,0,1,1,6.486,6.486Z" transform="translate(-138.346 -138.34)"/>
        </g>
      </g>
    </g>
  </g>
</svg>
