<svg xmlns="http://www.w3.org/2000/svg" xmlns:xlink="http://www.w3.org/1999/xlink" width="1200" zoomAndPan="magnify" viewBox="0 0 900 374.999991" height="500" preserveAspectRatio="xMidYMid meet" version="1.0"><defs><filter x="0%" y="0%" width="100%" height="100%" id="8203e860b2"><feColorMatrix values="0 0 0 0 1 0 0 0 0 1 0 0 0 0 1 0 0 0 1 0" color-interpolation-filters="sRGB"/></filter><clipPath id="2037a78c03"><path d="M 770.640625 244.890625 L 897.390625 244.890625 L 897.390625 371.640625 L 770.640625 371.640625 Z M 770.640625 244.890625 " clip-rule="nonzero"/></clipPath><mask id="367874c51e"><g filter="url(#8203e860b2)"><rect x="-90" width="1080" fill="#000000" y="-37.499999" height="449.999989" fill-opacity="0.2078"/></g></mask><clipPath id="968f23fa05"><path d="M 0.640625 0.890625 L 127.390625 0.890625 L 127.390625 127.640625 L 0.640625 127.640625 Z M 0.640625 0.890625 " clip-rule="nonzero"/></clipPath><clipPath id="684e2c6cba"><rect x="0" width="128" y="0" height="128"/></clipPath><mask id="7e623e6982"><g filter="url(#8203e860b2)"><rect x="-90" width="1080" fill="#000000" y="-37.499999" height="449.999989" fill-opacity="0.498"/></g></mask><clipPath id="40f3eb9bdc"><path d="M 0.078125 0.238281 L 87.921875 0.238281 L 87.921875 88 L 0.078125 88 Z M 0.078125 0.238281 " clip-rule="nonzero"/></clipPath><clipPath id="1af1d42803"><rect x="0" width="88" y="0" height="89"/></clipPath><mask id="966b6c5b4a"><g filter="url(#8203e860b2)"><rect x="-90" width="1080" fill="#000000" y="-37.499999" height="449.999989" fill-opacity="0.298"/></g></mask><clipPath id="f58ee7857f"><path d="M 66 66 L 163.910156 66 L 163.910156 163.769531 L 66 163.769531 Z M 66 66 " clip-rule="nonzero"/></clipPath><mask id="b1cf79da71"><g filter="url(#8203e860b2)"><rect x="-209" width="1296" fill="#000000" y="-89.499998" height="539.999987" fill-opacity="0.2078"/></g></mask><clipPath id="09f0695b9c"><path d="M 0.519531 0.199219 L 97.910156 0.199219 L 97.910156 97.769531 L 0.519531 97.769531 Z M 0.519531 0.199219 " clip-rule="nonzero"/></clipPath><clipPath id="4ebd7ead08"><rect x="0" width="98" y="0" height="98"/></clipPath><mask id="46d0ac34c0"><g filter="url(#8203e860b2)"><rect x="-209" width="1296" fill="#000000" y="-89.499998" height="539.999987" fill-opacity="0.498"/></g></mask><clipPath id="2560370cd1"><path d="M 0.640625 0.078125 L 98.320312 0.078125 L 98.320312 97.761719 L 0.640625 97.761719 Z M 0.640625 0.078125 " clip-rule="nonzero"/></clipPath><clipPath id="419533e8fe"><rect x="0" width="99" y="0" height="98"/></clipPath><clipPath id="df36c6f122"><path d="M 0.679688 0.269531 L 98 0.269531 L 98 98 L 0.679688 98 Z M 0.679688 0.269531 " clip-rule="nonzero"/></clipPath><clipPath id="9028a8a22b"><rect x="0" width="165" y="0" height="164"/></clipPath></defs><g clip-path="url(#2037a78c03)"><g mask="url(#367874c51e)"><g transform="matrix(1, 0, 0, 1, 770, 244)"><g clip-path="url(#684e2c6cba)"><g clip-path="url(#968f23fa05)"><path fill="#23a9b6" d="M 64.015625 127.640625 C 29.070312 127.640625 0.640625 99.210938 0.640625 64.265625 C 0.640625 29.320312 29.070312 0.890625 64.015625 0.890625 C 98.960938 0.890625 127.390625 29.320312 127.390625 64.265625 C 127.390625 99.210938 98.960938 127.640625 64.015625 127.640625 Z M 64.015625 2.144531 C 29.761719 2.144531 1.894531 30.011719 1.894531 64.265625 C 1.894531 98.519531 29.761719 126.386719 64.015625 126.386719 C 98.269531 126.386719 126.136719 98.519531 126.136719 64.265625 C 126.136719 30.011719 98.269531 2.144531 64.015625 2.144531 Z M 64.015625 2.144531 " fill-opacity="1" fill-rule="nonzero"/></g></g></g></g></g><g mask="url(#7e623e6982)"><g transform="matrix(1, 0, 0, 1, 790, 264)"><g clip-path="url(#1af1d42803)"><g clip-path="url(#40f3eb9bdc)"><path fill="#23a9b6" d="M 44.015625 87.964844 C 19.921875 87.964844 0.316406 68.359375 0.316406 44.265625 C 0.316406 20.171875 19.921875 0.566406 44.015625 0.566406 C 68.109375 0.566406 87.714844 20.171875 87.714844 44.265625 C 87.714844 68.359375 68.109375 87.964844 44.015625 87.964844 Z M 44.015625 1.824219 C 20.613281 1.824219 1.574219 20.863281 1.574219 44.265625 C 1.574219 67.667969 20.613281 86.707031 44.015625 86.707031 C 67.417969 86.707031 86.457031 67.667969 86.457031 44.265625 C 86.457031 20.863281 67.417969 1.824219 44.015625 1.824219 Z M 44.015625 1.824219 " fill-opacity="1" fill-rule="nonzero"/></g></g></g></g><path fill="#23a9b6" d="M 834.015625 332.285156 C 820.769531 332.285156 809.996094 321.511719 809.996094 308.265625 C 809.996094 295.019531 820.769531 284.246094 834.015625 284.246094 C 847.261719 284.246094 858.035156 295.019531 858.035156 308.265625 C 858.035156 321.511719 847.261719 332.285156 834.015625 332.285156 Z M 834.015625 285.5 C 821.460938 285.5 811.25 295.710938 811.25 308.265625 C 811.25 320.816406 821.460938 331.03125 834.015625 331.03125 C 846.566406 331.03125 856.78125 320.816406 856.78125 308.265625 C 856.78125 295.710938 846.566406 285.5 834.015625 285.5 Z M 834.015625 285.5 " fill-opacity="1" fill-rule="nonzero"/><g mask="url(#966b6c5b4a)"><g transform="matrix(1, 0, 0, 1, 11, 7)"><g clip-path="url(#9028a8a22b)"><g clip-path="url(#f58ee7857f)"><g mask="url(#b1cf79da71)"><g transform="matrix(1, 0, 0, 1, 66, 66)"><g clip-path="url(#4ebd7ead08)"><g clip-path="url(#09f0695b9c)"><path fill="#23a9b6" d="M 11.488281 97.769531 L 87.585938 97.769531 C 93.429688 97.769531 98.179688 93.015625 98.179688 87.171875 L 98.179688 11.078125 C 98.179688 5.234375 93.429688 0.480469 87.585938 0.480469 L 11.488281 0.480469 C 5.644531 0.480469 0.894531 5.234375 0.894531 11.078125 L 0.894531 87.171875 C 0.894531 93.015625 5.644531 97.769531 11.488281 97.769531 Z M 87.585938 2.097656 C 92.535156 2.097656 96.5625 6.125 96.5625 11.078125 L 96.5625 87.171875 C 96.5625 92.125 92.535156 96.148438 87.585938 96.148438 L 11.488281 96.148438 C 6.539062 96.148438 2.511719 92.125 2.511719 87.171875 L 2.511719 11.078125 C 2.511719 6.125 6.539062 2.097656 11.488281 2.097656 Z M 87.585938 2.097656 " fill-opacity="1" fill-rule="nonzero"/></g></g></g></g></g><g mask="url(#46d0ac34c0)"><g transform="matrix(1, 0, 0, 1, 33, 33)"><g clip-path="url(#419533e8fe)"><g clip-path="url(#2560370cd1)"><path fill="#23a9b6" d="M 11.382812 97.664062 L 87.480469 97.664062 C 93.320312 97.664062 98.074219 92.910156 98.074219 87.066406 L 98.074219 10.972656 C 98.074219 5.128906 93.320312 0.375 87.480469 0.375 L 11.382812 0.375 C 5.539062 0.375 0.789062 5.128906 0.789062 10.972656 L 0.789062 87.066406 C 0.789062 92.910156 5.539062 97.664062 11.382812 97.664062 Z M 87.480469 1.992188 C 92.429688 1.992188 96.457031 6.019531 96.457031 10.972656 L 96.457031 87.066406 C 96.457031 92.015625 92.429688 96.042969 87.480469 96.042969 L 11.382812 96.042969 C 6.433594 96.042969 2.40625 92.015625 2.40625 87.066406 L 2.40625 10.972656 C 2.40625 6.019531 6.433594 1.992188 11.382812 1.992188 Z M 87.480469 1.992188 " fill-opacity="1" fill-rule="nonzero"/></g></g></g></g><g clip-path="url(#df36c6f122)"><path fill="#23a9b6" d="M 11.277344 97.558594 L 87.375 97.558594 C 93.214844 97.558594 97.96875 92.804688 97.96875 86.960938 L 97.96875 10.867188 C 97.96875 5.023438 93.214844 0.269531 87.375 0.269531 L 11.277344 0.269531 C 5.433594 0.269531 0.679688 5.023438 0.679688 10.867188 L 0.679688 86.960938 C 0.679688 92.804688 5.433594 97.558594 11.277344 97.558594 Z M 87.375 1.886719 C 92.324219 1.886719 96.351562 5.914062 96.351562 10.867188 L 96.351562 86.960938 C 96.351562 91.910156 92.324219 95.9375 87.375 95.9375 L 11.277344 95.9375 C 6.328125 95.9375 2.300781 91.910156 2.300781 86.960938 L 2.300781 10.867188 C 2.300781 5.914062 6.328125 1.886719 11.277344 1.886719 Z M 87.375 1.886719 " fill-opacity="1" fill-rule="nonzero"/></g></g></g></g></svg>