<svg xmlns="http://www.w3.org/2000/svg" xmlns:xlink="http://www.w3.org/1999/xlink" width="651" height="531" viewBox="0 0 651 531">
  <defs>
    <linearGradient id="linear-gradient" y1="0.458" x2="0.488" y2="1" gradientUnits="objectBoundingBox">
      <stop offset="0" stop-color="#56b5e3" stop-opacity="0.549"/>
      <stop offset="1" stop-color="#7d58a5" stop-opacity="0.639"/>
    </linearGradient>
    <clipPath id="clip-coding">
      <rect width="651" height="531"/>
    </clipPath>
  </defs>
  <g id="coding" clip-path="url(#clip-coding)">
    <rect width="651" height="531" fill="#fff"/>
    <g id="Group_1" data-name="Group 1" transform="translate(0.052 -0.18)">
      <rect id="Rectangle_1" data-name="Rectangle 1" width="651" height="531" transform="translate(-0.052 0.18)" fill="url(#linear-gradient)"/>
    </g>
    <g id="coding-2" data-name="coding" transform="translate(259.699 177.735)">
      <path id="Path_66" data-name="Path 66" d="M174.167,154.346H16.512a9.02,9.02,0,0,1-9.02-9.019V17.013a9.02,9.02,0,0,1,9.02-9.02H174.167a9.02,9.02,0,0,1,9.019,9.02V145.326A9.019,9.019,0,0,1,174.167,154.346Zm0,0" transform="translate(-4.841 -4.841)" fill="#fff"/>
      <path id="Path_67" data-name="Path 67" d="M467.361,17.015V145.329a9.019,9.019,0,0,1-9.019,9.019H447.324a9.018,9.018,0,0,0,9.019-9.019V17.015A9.018,9.018,0,0,0,447.324,8h11.018A9.019,9.019,0,0,1,467.361,17.015Zm0,0" transform="translate(-289.014 -4.843)" fill="#fff"/>
      <path id="Path_68" data-name="Path 68" d="M183.187,360.129H7.493v12.712a9.02,9.02,0,0,0,9.02,9.019H174.168a9.019,9.019,0,0,0,9.019-9.019Zm0,0" transform="translate(-4.841 -232.355)" fill="#fff"/>
      <path id="Path_69" data-name="Path 69" d="M467.361,360.129v12.712a9.019,9.019,0,0,1-9.019,9.019H447.324a9.018,9.018,0,0,0,9.019-9.019V360.129Zm0,0" transform="translate(-289.014 -232.355)" fill="#5a5a5a"/>
      <path id="Path_70" data-name="Path 70" d="M183.747,38.761H8.047V17.011a9.019,9.019,0,0,1,9.019-9.019H174.728a9.019,9.019,0,0,1,9.019,9.019Zm0,0" transform="translate(-5.199 -4.841)" fill="#fff"/>
      <path id="Path_71" data-name="Path 71" d="M467.563,17.012V38.765h-11.22V17.012A9.018,9.018,0,0,0,447.325,8h11.218A9.019,9.019,0,0,1,467.563,17.012Zm0,0" transform="translate(-289.015 -4.843)" fill="#f33944"/>
      <path id="Path_72" data-name="Path 72" d="M186.277,421.531h49.148v14.814H186.277Zm0,0" transform="translate(-120.353 -272.026)" fill="#fff"/>
      <path id="Path_73" data-name="Path 73" d="M219.049,477.923h-81a1.769,1.769,0,0,1-1.768-1.768v-5.729a7.036,7.036,0,0,1,7.035-7.035h70.467a7.035,7.035,0,0,1,7.034,7.035v5.729a1.767,1.767,0,0,1-1.768,1.768Zm0,0" transform="translate(-88.051 -299.072)" fill="#cecbcb"/>
      <path id="Path_74" data-name="Path 74" d="M347.689,470.427v5.732a1.769,1.769,0,0,1-1.768,1.768h-6.24v-7.5a7.035,7.035,0,0,0-7.032-7.032h8.008A7.033,7.033,0,0,1,347.689,470.427Zm0,0" transform="translate(-214.923 -299.074)" fill="#5a5a5a"/>
      <path id="Path_75" data-name="Path 75" d="M295.477,275.613H352.9V286.5H295.477Zm0,0" transform="translate(-190.907 -177.749)" fill="#f33944"/>
      <path id="Path_76" data-name="Path 76" d="M295.477,357.273H352.9v10.885H295.477Zm0,0" transform="translate(-190.907 -230.51)" fill="#f33944"/>
      <path id="Path_77" data-name="Path 77" d="M438.551,275.613h6.789V286.5h-6.789Zm0,0" transform="translate(-283.346 -177.749)" fill="#00d1fc"/>
      <path id="Path_78" data-name="Path 78" d="M438.551,357.273h6.789v10.885h-6.789Zm0,0" transform="translate(-283.346 -230.51)" fill="#00d1fc"/>
      <g id="Group_17" data-name="Group 17" transform="translate(97.252 79.848)">
        <path id="Path_79" data-name="Path 79" d="M344.295,242.723H277.361a2.564,2.564,0,0,1-2.564-2.563V227.271a2.565,2.565,0,0,1,2.564-2.564h66.934a2.565,2.565,0,0,1,2.564,2.564V240.16A2.564,2.564,0,0,1,344.295,242.723Zm0,0" transform="translate(-274.797 -224.707)" fill="#fff"/>
        <path id="Path_80" data-name="Path 80" d="M344.295,324.383H277.361a2.564,2.564,0,0,1-2.564-2.563V308.931a2.565,2.565,0,0,1,2.564-2.564h66.934a2.565,2.565,0,0,1,2.564,2.564V321.82A2.564,2.564,0,0,1,344.295,324.383Zm0,0" transform="translate(-274.797 -277.467)" fill="#fff"/>
        <path id="Path_81" data-name="Path 81" d="M344.295,406.044H277.361a2.564,2.564,0,0,1-2.564-2.563V390.592a2.564,2.564,0,0,1,2.564-2.564h66.934a2.564,2.564,0,0,1,2.564,2.564v12.889A2.564,2.564,0,0,1,344.295,406.044Zm0,0" transform="translate(-274.797 -330.228)" fill="#fff"/>
      </g>
      <path id="Path_82" data-name="Path 82" d="M462.877,227.274v12.888a2.562,2.562,0,0,1-2.563,2.563h-5.947a2.562,2.562,0,0,0,2.563-2.563V227.274a2.562,2.562,0,0,0-2.563-2.563h5.947A2.562,2.562,0,0,1,462.877,227.274Zm0,0" transform="translate(-293.565 -144.862)" fill="#f33944"/>
      <path id="Path_83" data-name="Path 83" d="M462.877,308.93v12.889a2.56,2.56,0,0,1-2.563,2.563h-5.947a2.56,2.56,0,0,0,2.563-2.563V308.93a2.562,2.562,0,0,0-2.563-2.563h5.947A2.562,2.562,0,0,1,462.877,308.93Zm0,0" transform="translate(-293.565 -197.619)" fill="#f33944"/>
      <path id="Path_84" data-name="Path 84" d="M462.877,390.6v12.887a2.563,2.563,0,0,1-2.563,2.564h-5.947a2.563,2.563,0,0,0,2.563-2.564V390.6a2.561,2.561,0,0,0-2.563-2.564h5.947A2.561,2.561,0,0,1,462.877,390.6Zm0,0" transform="translate(-293.565 -250.382)" fill="#f33944"/>
      <path id="Path_85" data-name="Path 85" d="M51.026,41.884a5.13,5.13,0,1,1-5.13-5.13A5.131,5.131,0,0,1,51.026,41.884Zm0,0" transform="translate(-26.339 -23.424)" fill="#ff6b81"/>
      <path id="Path_86" data-name="Path 86" d="M107.012,41.884a5.131,5.131,0,1,1-5.13-5.13A5.131,5.131,0,0,1,107.012,41.884Zm0,0" transform="translate(-62.51 -23.424)" fill="#ffd86e"/>
      <path id="Path_87" data-name="Path 87" d="M163,41.884a5.13,5.13,0,1,1-5.13-5.13A5.131,5.131,0,0,1,163,41.884Zm0,0" transform="translate(-98.684 -23.424)" fill="#80e0dc"/>
      <path id="Path_88" data-name="Path 88" d="M53.932,41.889A5.128,5.128,0,0,1,45.266,45.6a5.126,5.126,0,0,0,3.419-8.837,1.179,1.179,0,0,1,.12,0,5.127,5.127,0,0,1,5.127,5.132Zm0,0" transform="translate(-29.246 -23.426)" fill="#ff435f"/>
      <path id="Path_89" data-name="Path 89" d="M109.915,41.889a5.13,5.13,0,0,1-8.669,3.709,5.126,5.126,0,0,0,3.423-8.837,1.087,1.087,0,0,1,.116,0,5.128,5.128,0,0,1,5.13,5.132Zm0,0" transform="translate(-65.415 -23.426)" fill="#ffb509"/>
      <path id="Path_90" data-name="Path 90" d="M165.9,41.889a5.131,5.131,0,0,1-8.671,3.709,5.126,5.126,0,0,0,3.419-8.837,1.179,1.179,0,0,1,.12,0,5.131,5.131,0,0,1,5.132,5.132Zm0,0" transform="translate(-101.588 -23.426)" fill="#00a8b0"/>
      <path id="Path_91" data-name="Path 91" d="M42.364,148.426a2.652,2.652,0,1,0,3.751-3.751l-6.439-6.439,6.439-6.438a2.652,2.652,0,0,0-3.751-3.751l-8.314,8.314a2.652,2.652,0,0,0,0,3.751Zm0,0" transform="translate(-21.498 -81.906)"/>
      <path id="Path_92" data-name="Path 92" d="M120.147,138.233l-6.439,6.439a2.652,2.652,0,1,0,3.751,3.751l8.315-8.315a2.651,2.651,0,0,0,0-3.749l-8.315-8.315a2.652,2.652,0,0,0-3.749,3.751Zm0,0" transform="translate(-72.964 -81.903)"/>
      <path id="Path_93" data-name="Path 93" d="M78.1,149.015a2.651,2.651,0,0,0,3.438-1.5l6.532-16.629a2.651,2.651,0,1,0-4.935-1.94L76.6,145.577a2.652,2.652,0,0,0,1.5,3.438Zm0,0" transform="translate(-49.373 -81.903)"/>
      <path id="Path_94" data-name="Path 94" d="M40.167,223.519H58.032a2.652,2.652,0,0,0,0-5.3H40.167a2.652,2.652,0,0,0,0,5.3Zm0,0" transform="translate(-24.239 -140.665)"/>
      <path id="Path_95" data-name="Path 95" d="M149.572,218.215H118.163a2.652,2.652,0,0,0,0,5.3h31.409a2.652,2.652,0,1,0,0-5.3Zm0,0" transform="translate(-74.632 -140.665)"/>
      <path id="Path_96" data-name="Path 96" d="M40.167,255.125h7.61a2.652,2.652,0,0,0,0-5.3h-7.61a2.652,2.652,0,0,0,0,5.3Zm0,0" transform="translate(-24.239 -161.085)"/>
      <path id="Path_97" data-name="Path 97" d="M179.5,249.82a2.652,2.652,0,0,0,0,5.3h4.634a2.652,2.652,0,1,0,0-5.3Zm0,0" transform="translate(-114.261 -161.085)"/>
      <path id="Path_98" data-name="Path 98" d="M113.379,252.472a2.652,2.652,0,0,0-2.652-2.652H87.964a2.652,2.652,0,0,0,0,5.3h22.763A2.652,2.652,0,0,0,113.379,252.472Zm0,0" transform="translate(-55.12 -161.085)"/>
      <path id="Path_99" data-name="Path 99" d="M213.7,252.472a2.652,2.652,0,0,0,2.652,2.653h8.68a2.652,2.652,0,1,0,0-5.3h-8.68A2.652,2.652,0,0,0,213.7,252.472Zm0,0" transform="translate(-138.073 -161.085)"/>
      <path id="Path_100" data-name="Path 100" d="M168.052,154.582h9.156a2.652,2.652,0,1,0,0-5.3h-9.156a2.652,2.652,0,1,0,0,5.3Zm0,0" transform="translate(-106.864 -96.125)"/>
      <path id="Path_101" data-name="Path 101" d="M222.9,154.582h55.866a2.652,2.652,0,0,0,0-5.3H222.9a2.652,2.652,0,1,0,0,5.3Zm0,0" transform="translate(-142.3 -96.125)"/>
      <path id="Path_102" data-name="Path 102" d="M315.466,182.246H292.835a2.652,2.652,0,0,0,0,5.3h22.631a2.652,2.652,0,0,0,0-5.3Zm0,0" transform="translate(-187.487 -117.425)"/>
      <path id="Path_103" data-name="Path 103" d="M254.657,182.246h-7.779a2.652,2.652,0,0,0,0,5.3h7.779a2.652,2.652,0,0,0,0-5.3Zm0,0" transform="translate(-157.794 -117.425)"/>
      <path id="Path_104" data-name="Path 104" d="M168.052,187.55h19.057a2.652,2.652,0,0,0,0-5.3H168.052a2.652,2.652,0,1,0,0,5.3Zm0,0" transform="translate(-106.864 -117.425)"/>
      <path id="Path_105" data-name="Path 105" d="M119.763,281.16H101.9a2.652,2.652,0,1,0,0,5.3h17.864a2.652,2.652,0,0,0,0-5.3Zm0,0" transform="translate(-64.123 -181.333)"/>
      <path id="Path_106" data-name="Path 106" d="M53.892,281.16H40.167a2.652,2.652,0,0,0,0,5.3H53.892a2.652,2.652,0,0,0,0-5.3Zm0,0" transform="translate(-24.239 -181.333)"/>
      <path id="Path_107" data-name="Path 107" d="M201.278,281.16H177.941a2.652,2.652,0,0,0,0,5.3h23.337a2.652,2.652,0,0,0,0-5.3Zm0,0" transform="translate(-113.254 -181.333)"/>
      <path id="Path_108" data-name="Path 108" d="M309.76,242.668H297a2.652,2.652,0,0,0,0,5.3H309.76a2.652,2.652,0,0,0,0-5.3Zm0,0" transform="translate(-190.177 -156.464)"/>
      <path id="Path_109" data-name="Path 109" d="M395.628,247.972h18.015a2.652,2.652,0,1,0,0-5.3H395.628a2.652,2.652,0,0,0,0,5.3Zm0,0" transform="translate(-253.901 -156.464)"/>
      <path id="Path_110" data-name="Path 110" d="M362.637,242.668h-4.128a2.652,2.652,0,1,0,0,5.3h4.128a2.652,2.652,0,0,0,0-5.3Zm0,0" transform="translate(-229.917 -156.464)"/>
      <path id="Path_111" data-name="Path 111" d="M297,329.632h12.761a2.652,2.652,0,1,0,0-5.3H297a2.652,2.652,0,0,0,0,5.3Zm0,0" transform="translate(-190.177 -209.224)"/>
      <path id="Path_112" data-name="Path 112" d="M395.628,329.632h18.015a2.652,2.652,0,1,0,0-5.3H395.628a2.652,2.652,0,0,0,0,5.3Zm0,0" transform="translate(-253.901 -209.224)"/>
      <path id="Path_113" data-name="Path 113" d="M358.511,329.632h4.128a2.652,2.652,0,1,0,0-5.3h-4.128a2.652,2.652,0,0,0,0,5.3Zm0,0" transform="translate(-229.92 -209.224)"/>
      <path id="Path_114" data-name="Path 114" d="M309.76,405.988H297a2.652,2.652,0,1,0,0,5.3H309.76a2.652,2.652,0,0,0,0-5.3Zm0,0" transform="translate(-190.177 -261.984)"/>
      <path id="Path_115" data-name="Path 115" d="M413.643,405.988H395.628a2.652,2.652,0,1,0,0,5.3h18.015a2.652,2.652,0,1,0,0-5.3Zm0,0" transform="translate(-253.901 -261.984)"/>
      <path id="Path_116" data-name="Path 116" d="M362.637,405.988h-4.128a2.652,2.652,0,1,0,0,5.3h4.128a2.652,2.652,0,0,0,0-5.3Zm0,0" transform="translate(-229.917 -261.984)"/>
      <path id="Path_117" data-name="Path 117" d="M169.528.5H11.671A11.685,11.685,0,0,0,0,12.172V140.486a11.685,11.685,0,0,0,11.672,11.671h9.98a2.652,2.652,0,1,0,0-5.3h-9.98A6.374,6.374,0,0,1,5.3,140.486v-10.06h96.615V135h-2.1a5.221,5.221,0,0,0-5.216,5.216v6.641H37.775a2.652,2.652,0,0,0,0,5.3h25.5v9.511H55.265a9.7,9.7,0,0,0-9.687,9.687v5.729A4.424,4.424,0,0,0,50,181.5h81a4.424,4.424,0,0,0,4.42-4.42v-5.729a9.7,9.7,0,0,0-9.687-9.687h-8.007v-3.352h49.025a5.221,5.221,0,0,0,5.215-5.216v-1.248A11.688,11.688,0,0,0,181,140.486l.2-128.315A11.682,11.682,0,0,0,169.528.5ZM99.9,124.112V111.4h66.757v12.712Zm7.317-18.016v-5.58h52.121v5.58Zm52.121,23.319V135H107.222v-5.581ZM68.575,152.156H94.6v.944a5.221,5.221,0,0,0,5.216,5.215h12.605v3.352H68.575Zm57.157,14.816a4.387,4.387,0,0,1,4.382,4.382V176.2H50.881v-4.845a4.388,4.388,0,0,1,4.384-4.382Zm40.928-13.961H99.9V140.3h66.757Zm9.033-12.525a6.369,6.369,0,0,1-3.728,5.787v-6.062A5.221,5.221,0,0,0,166.749,135h-2.1v-4.57h11.047Zm0-15.363h-3.816c.054-.3.087-13.811.087-13.811a5.222,5.222,0,0,0-5.216-5.216h-2.1v-5.58h2.1a5.223,5.223,0,0,0,5.216-5.216V82.412a5.223,5.223,0,0,0-5.216-5.216H151.77a2.652,2.652,0,0,0,0,5.3h14.89V95.212H99.9V82.5H135.27a2.652,2.652,0,0,0,0-5.3H99.815A5.222,5.222,0,0,0,94.6,82.412V95.3a5.222,5.222,0,0,0,5.216,5.216h2.1v5.58h-2.1a5.222,5.222,0,0,0-5.216,5.216s.033,13.511.087,13.811H5.3V36.573h170.39Zm0-93.854H5.5V12.17A6.374,6.374,0,0,1,11.866,5.8h157.46a6.374,6.374,0,0,1,6.368,6.368Zm0,0" transform="translate(0 0)"/>
      <path id="Path_118" data-name="Path 118" d="M41.055,29.262a7.782,7.782,0,1,0,7.783,7.782A7.79,7.79,0,0,0,41.055,29.262Zm0,10.26a2.479,2.479,0,1,1,2.479-2.479A2.482,2.482,0,0,1,41.055,39.522Zm0,0" transform="translate(-21.498 -18.583)"/>
      <path id="Path_119" data-name="Path 119" d="M97.041,29.262a7.782,7.782,0,1,0,7.782,7.782A7.791,7.791,0,0,0,97.041,29.262Zm0,10.26a2.479,2.479,0,1,1,2.479-2.479A2.481,2.481,0,0,1,97.041,39.522Zm0,0" transform="translate(-57.669 -18.583)"/>
      <path id="Path_120" data-name="Path 120" d="M153.027,29.262a7.782,7.782,0,1,0,7.783,7.782A7.79,7.79,0,0,0,153.027,29.262Zm0,10.26a2.479,2.479,0,1,1,2.479-2.479A2.482,2.482,0,0,1,153.027,39.522Zm0,0" transform="translate(-93.843 -18.583)"/>
    </g>
  </g>
</svg>
