<svg xmlns="http://www.w3.org/2000/svg" xmlns:xlink="http://www.w3.org/1999/xlink" width="529" height="464" viewBox="0 0 529 464">
  <defs>
    <radialGradient id="radial-gradient" cx="0.5" cy="0.5" r="0.5" gradientUnits="objectBoundingBox">
      <stop offset="0" stop-color="#57aedf"/>
      <stop offset="1" stop-color="#7b59a5"/>
    </radialGradient>
    <clipPath id="clip-freelancer">
      <rect width="529" height="464"/>
    </clipPath>
  </defs>
  <g id="freelancer" clip-path="url(#clip-freelancer)">
    <rect width="529" height="464" fill="#fff"/>
    <g id="freelancer-2" data-name="freelancer" transform="translate(47.786 15.293)">
      <path id="Path_8" data-name="Path 8" d="M66.07,82.237H72.74a5.926,5.926,0,1,0,0-11.852l-6.471.207,3.44-23.168a5.927,5.927,0,0,0-11.726-1.737L54.546,68.835a11.659,11.659,0,0,0,11.513,13.4Z" transform="translate(129.844 96.945)" fill="url(#radial-gradient)"/>
      <path id="Path_9" data-name="Path 9" d="M51.168,58.291a5.926,5.926,0,0,0-.806,8.34A35.311,35.311,0,0,0,77.689,78.019a35.321,35.321,0,0,0,27.326-11.381A5.926,5.926,0,1,0,95.872,59.1a23.855,23.855,0,0,1-18.18,7.064A23.856,23.856,0,0,1,59.512,59.1a5.929,5.929,0,0,0-8.343-.809Z" transform="translate(116.948 135.577)" fill="url(#radial-gradient)"/>
      <path id="Path_10" data-name="Path 10" d="M78.658,64A14.161,14.161,0,1,0,64.494,49.838,14.16,14.16,0,0,0,78.658,64Z" transform="translate(153.893 85.133)" fill="url(#radial-gradient)"/>
      <path id="Path_11" data-name="Path 11" d="M56.514,64A14.161,14.161,0,1,0,42.353,49.839,14.161,14.161,0,0,0,56.514,64Z" transform="translate(101.061 85.133)" fill="url(#radial-gradient)"/>
      <path id="Path_12" data-name="Path 12" d="M427.5,275.126H249.6a15.523,15.523,0,0,1-.626-2.709l-3.295-25.752a80.445,80.445,0,0,0,24.065-32.378,159.04,159.04,0,0,0,7.683-29.063c.166-.843.339-1.666.511-2.506a28.106,28.106,0,0,0,4.7.42,29.121,29.121,0,0,0,3.616-58.012V70.27A70.341,70.341,0,0,0,216,0h-41.88a70.337,70.337,0,0,0-70.256,70.259V125a29.121,29.121,0,1,0,8.289,57.565c.173.874.359,1.73.532,2.6a159.428,159.428,0,0,0,7.693,29.121,80.451,80.451,0,0,0,24.062,32.368l-3.251,25.43a24.858,24.858,0,0,1-6.217,11.222A20.75,20.75,0,0,1,119.7,288.69c-7.27.731-14.767,1.253-21.218,1.693a192.585,192.585,0,0,0-37.888,5.184A82.494,82.494,0,0,0,0,374.939v52.54A5.926,5.926,0,0,0,5.926,433.4c114.913,0,271.976.02,387.715,0a39.835,39.835,0,0,0,39.787-39.774V281.051a5.926,5.926,0,0,0-5.926-5.926ZM299.926,153.989a17.3,17.3,0,0,1-17.269,17.269,16.786,16.786,0,0,1-2.248-.217l4.03-18.38a81.909,81.909,0,0,0,1.795-15.576A17.3,17.3,0,0,1,299.926,153.989ZM174.123,11.852H216a58.476,58.476,0,0,1,58.408,58.408v31.759h0a31.217,31.217,0,0,1-30.475-24.042L241.46,67.622a5.926,5.926,0,0,0-11.323-.677l-5.4,14.611a31.441,31.441,0,0,1-29.378,20.463H115.719V70.259a58.472,58.472,0,0,1,58.4-58.408ZM89.351,153.989a17.269,17.269,0,0,1,14.56-17.005,81.884,81.884,0,0,0,1.8,15.7l4,18.268a17.009,17.009,0,0,1-3.078.318A17.3,17.3,0,0,1,89.351,153.989Zm42.012,55.838a150.256,150.256,0,0,1-7.043-26.944c-.616-3.112-1.226-6.2-1.893-9.254l-5.137-23.459a69.887,69.887,0,0,1-1.571-14.679V113.87h79.642a43.343,43.343,0,0,0,39.51-25.775,43,43,0,0,0,39.523,25.775v21.614a69.682,69.682,0,0,1-1.571,14.662l-5.14,23.49c-.677,3.048-1.28,6.156-1.9,9.278a149.867,149.867,0,0,1-7.036,26.9,68.81,68.81,0,0,1-127.4,0ZM152.8,274.5a5.379,5.379,0,0,0,.112-.6l2.529-19.789a81.075,81.075,0,0,0,79.236,0l2.536,19.792c.047.4.112.809.179,1.212H227.083a5.929,5.929,0,0,0-5.926,5.936V309.9a57.074,57.074,0,0,1-26.094,8.269c-13.169,0-31.515-9.275-52-26.212.058-.054.122-.1.179-.156a36.777,36.777,0,0,0,9.556-17.283Zm10.7,129.284h57.656V421.54h-40A17.791,17.791,0,0,1,163.5,403.8Zm-42.92-103.271a35.155,35.155,0,0,0,11.852-2.032c17.1,14.608,41.47,31.529,62.644,31.529a62.254,62.254,0,0,0,26.094-6.806V339.8a72.167,72.167,0,0,1-26.094,5.465c-30.865,0-64.222-26.781-82.5-44.02C115.221,301.009,117.9,300.779,120.581,300.515ZM11.852,374.939a70.618,70.618,0,0,1,51.862-67.953,166.779,166.779,0,0,1,33.076-4.6c20.154,20.517,59.6,54.741,98.273,54.741a80.819,80.819,0,0,0,26.094-4.71v39.55H157.575a5.926,5.926,0,0,0-5.926,5.926v5.916a29.439,29.439,0,0,0,5.973,17.764H74.435v-36.4a5.926,5.926,0,0,0-11.852,0v36.381H11.852Zm409.725,18.692a27.966,27.966,0,0,1-27.936,27.936H233.008V286.977H421.577Z" fill="url(#radial-gradient)"/>
      <path id="Path_13" data-name="Path 13" d="M119.359,170.844a32.216,32.216,0,0,0,6.7-63.728,8.354,8.354,0,0,1,7.582-4.89,5.926,5.926,0,1,0,0-11.852,20.236,20.236,0,0,0-19.863,16.548,32.2,32.2,0,0,0,5.577,63.921Zm0-52.587a20.368,20.368,0,1,1-20.364,20.366,20.369,20.369,0,0,1,20.364-20.366Z" transform="translate(207.934 215.649)" fill="url(#radial-gradient)"/>
    </g>
  </g>
</svg>
