<svg xmlns="http://www.w3.org/2000/svg" xmlns:xlink="http://www.w3.org/1999/xlink" width="651" height="531" viewBox="0 0 651 531">
  <defs>
    <linearGradient id="linear-gradient" y1="0.458" x2="0.488" y2="1" gradientUnits="objectBoundingBox">
      <stop offset="0" stop-color="#56b5e3" stop-opacity="0.549"/>
      <stop offset="1" stop-color="#7d58a5" stop-opacity="0.639"/>
    </linearGradient>
    <clipPath id="clip-maintenence">
      <rect width="651" height="531"/>
    </clipPath>
  </defs>
  <g id="maintenence" clip-path="url(#clip-maintenence)">
    <rect width="651" height="531" fill="#fff"/>
    <g id="Group_1" data-name="Group 1" transform="translate(0.052 -0.18)">
      <rect id="Rectangle_1" data-name="Rectangle 1" width="651" height="531" transform="translate(-0.052 0.18)" fill="url(#linear-gradient)"/>
    </g>
    <g id="maintenance" transform="translate(196.356 118.001)">
      <path id="Path_43" data-name="Path 43" d="M254.045,146.095v27.6l-20.21,1.97a75.753,75.753,0,0,1-10.595,25.139L236.3,216.582l-19.468,19.468L201.056,222.99a73.637,73.637,0,0,1-25.139,10.595l-1.97,20.457h-27.6l-1.974-20.457a75.727,75.727,0,0,1-25.134-10.595L103.46,236.049,83.993,216.582l13.059-15.776a73.638,73.638,0,0,1-10.595-25.139L66,173.7v-27.6l20.457-1.97a75.752,75.752,0,0,1,10.595-25.139L83.993,103.21,103.46,83.743,119.236,96.8A73.653,73.653,0,0,1,144.37,86.207l1.974-20.457h27.6l1.97,20.457A75.752,75.752,0,0,1,201.056,96.8l15.776-13.059,19.22,19.468-13.059,15.776a73.637,73.637,0,0,1,10.595,25.139Zm-40.157,13.8a53.741,53.741,0,1,0-53.741,53.741A53.741,53.741,0,0,0,213.887,159.9Z" transform="translate(-3.536 -3.41)" fill="#fff"/>
      <path id="Path_47" data-name="Path 47" d="M53.741,0A53.741,53.741,0,1,1,0,53.741,53.741,53.741,0,0,1,53.741,0Z" transform="translate(102.869 102.745)" fill="#fff"/>
      <path id="Path_44" data-name="Path 44" d="M62.132,173.736l17.983,1.732a77.6,77.6,0,0,0,9.121,21.668L77.789,210.962a3.464,3.464,0,0,0,.219,4.659l19.468,19.468a3.464,3.464,0,0,0,4.659.219l13.85-11.465a79.29,79.29,0,0,0,21.641,9.139l1.736,17.922a3.411,3.411,0,0,0,3.448,3.068h27.6a3.41,3.41,0,0,0,3.448-3.068l1.732-17.951a77.547,77.547,0,0,0,21.669-9.105L211.087,235.3a3.464,3.464,0,0,0,4.659-.215l19.467-19.464a3.464,3.464,0,0,0,.219-4.658l-11.466-13.85a79.362,79.362,0,0,0,9.139-21.647l17.74-1.729a3.464,3.464,0,0,0,3.128-3.45v-27.6a3.464,3.464,0,0,0-3.132-3.448L232.858,137.5a77.6,77.6,0,0,0-9.121-21.668l11.447-13.827a3.464,3.464,0,0,0-.2-4.643L215.76,77.9a3.464,3.464,0,0,0-4.674-.235L197.235,89.13a79.361,79.361,0,0,0-21.645-9.139L173.858,62.07A3.41,3.41,0,0,0,170.412,59h-27.6a3.411,3.411,0,0,0-3.448,3.068l-1.736,17.952a77.568,77.568,0,0,0-21.664,9.105L102.133,77.672a3.464,3.464,0,0,0-4.659.215L78.007,97.351a3.464,3.464,0,0,0-.219,4.658l11.466,13.85A79.356,79.356,0,0,0,80.116,137.5l-17.984,1.732A3.464,3.464,0,0,0,59,142.684v27.6a3.464,3.464,0,0,0,3.132,3.448Zm3.8-27.9,17.325-1.668a3.464,3.464,0,0,0,3.054-2.717,72.5,72.5,0,0,1,10.12-23.992,3.464,3.464,0,0,0-.242-4.086L85.136,100.023l15.009-15.009,13.347,11.049a3.464,3.464,0,0,0,4.131.214,70.353,70.353,0,0,1,23.944-10.091,3.4,3.4,0,0,0,2.716-2.991l1.672-17.266h21.31l1.668,17.263a3.429,3.429,0,0,0,2.717,3.026,72.428,72.428,0,0,1,23.992,10.1,3.464,3.464,0,0,0,4.087-.25l13.331-11.04,14.79,14.978L216.788,113.37a3.464,3.464,0,0,0-.213,4.13,70.337,70.337,0,0,1,10.091,23.948,3.464,3.464,0,0,0,3.054,2.717l17.325,1.666v21.314l-17.082,1.663a3.464,3.464,0,0,0-3.05,2.716,72.5,72.5,0,0,1-10.12,23.992,3.464,3.464,0,0,0,.242,4.087l11.049,13.347-15.009,15.009L199.729,216.91a3.464,3.464,0,0,0-4.131-.214,70.344,70.344,0,0,1-23.948,10.091,3.394,3.394,0,0,0-2.717,2.992l-1.668,17.265h-21.31l-1.672-17.264a3.43,3.43,0,0,0-2.716-3.023,72.386,72.386,0,0,1-23.987-10.1,3.464,3.464,0,0,0-4.087.247l-13.347,11.053-15.009-15L96.185,199.6a3.464,3.464,0,0,0,.213-4.13,70.336,70.336,0,0,1-10.091-23.948,3.464,3.464,0,0,0-3.054-2.717l-17.325-1.667Z"/>
      <path id="Path_45" data-name="Path 45" d="M197.855,254.81a57.205,57.205,0,1,0-57.205-57.205,57.205,57.205,0,0,0,57.205,57.205Zm0-107.482a50.277,50.277,0,1,1-50.277,50.277,50.277,50.277,0,0,1,50.277-50.277Z" transform="translate(-41.245 -41.119)"/>
      <path id="Path_46" data-name="Path 46" d="M220.939,254.652a3.464,3.464,0,0,0,4.84,0l28.642-27.959a3.464,3.464,0,1,0-4.84-4.957l-26.222,25.6-13.475-13.156a3.464,3.464,0,1,0-4.84,4.957Z" transform="translate(-73.246 -81.708)" fill="#f43a45" stroke="#f43a45" stroke-width="6"/>
    </g>
  </g>
</svg>
