<svg xmlns="http://www.w3.org/2000/svg" xmlns:xlink="http://www.w3.org/1999/xlink" width="651" height="531" viewBox="0 0 651 531">
  <defs>
    <linearGradient id="linear-gradient" y1="0.458" x2="0.488" y2="1" gradientUnits="objectBoundingBox">
      <stop offset="0" stop-color="#56b5e3" stop-opacity="0.549"/>
      <stop offset="1" stop-color="#7d58a5" stop-opacity="0.639"/>
    </linearGradient>
    <clipPath id="clip-marketing">
      <rect width="651" height="531"/>
    </clipPath>
  </defs>
  <g id="marketing" clip-path="url(#clip-marketing)">
    <rect width="651" height="531" fill="#fff"/>
    <g id="Group_1" data-name="Group 1" transform="translate(0.052 -0.18)">
      <rect id="Rectangle_1" data-name="Rectangle 1" width="651" height="531" transform="translate(-0.052 0.18)" fill="url(#linear-gradient)"/>
    </g>
    <rect id="Rectangle_2" data-name="Rectangle 2" width="89" height="30" transform="matrix(0.899, -0.438, 0.438, 0.899, 309.258, 284.526)" fill="#f43a45"/>
    <rect id="Rectangle_3" data-name="Rectangle 3" width="89" height="30" transform="translate(320.023 292.711) rotate(-14)" fill="#f43a45"/>
    <rect id="Rectangle_4" data-name="Rectangle 4" width="93" height="30" transform="translate(296.023 261.711) rotate(-14)" fill="#f43a45"/>
    <rect id="Rectangle_7" data-name="Rectangle 7" width="51.464" height="12.193" transform="translate(322.188 230.502) rotate(-25)" fill="#f43a45"/>
    <rect id="Rectangle_8" data-name="Rectangle 8" width="41.807" height="18.35" transform="translate(328.4 228.194) rotate(-48)" fill="#f43a45"/>
    <rect id="Rectangle_5" data-name="Rectangle 5" width="78" height="20.261" rx="9" transform="translate(302.686 252.538) rotate(-20)" fill="#f43a45"/>
    <rect id="Rectangle_6" data-name="Rectangle 6" width="56.704" height="13.758" rx="6.879" transform="translate(314.626 239.365) rotate(-20)" fill="#f43a45"/>
    <g id="marketing-2" data-name="marketing" transform="translate(235.61 168.82)">
      <path id="Path_1" data-name="Path 1" d="M129.126,298.483a4.774,4.774,0,1,0-6.522-1.747A4.776,4.776,0,0,0,129.126,298.483Zm0,0" transform="translate(-63.735 -151.325)"/>
      <path id="Path_2" data-name="Path 2" d="M45.825,191.792l24.043,41.646a19.1,19.1,0,1,0,33.076-19.1L88.622,189.532l12.4-7.161a4.775,4.775,0,0,0,1.747-6.522L96.564,165.1c.74-.144,5.608-1.1,91.445-17.937a14.32,14.32,0,0,0,11.609-21.46L183.752,98.217l10.14-15.358a4.776,4.776,0,0,0,.151-5.019L184.494,61.3a4.784,4.784,0,0,0-4.422-2.378l-18.368,1.1L144.09,29.517a14.2,14.2,0,0,0-12.225-7.159c-.062,0-.121,0-.183,0a14.2,14.2,0,0,0-12.059,6.6l-62.367,79.45L16.711,131.818a33.419,33.419,0,0,0,29.113,59.974Zm48.852,27.327a9.549,9.549,0,0,1-16.54,9.547L54.266,187.314,70.8,177.766c27.627,47.858,23.429,40.587,23.873,41.353Zm-10.83-37.858-4.774-8.269,8.269-4.774,4.774,8.269ZM177.7,68.632l6.6,11.428-5.884,8.911-11.372-19.7ZM127.61,34.194a4.773,4.773,0,0,1,8.209.1l55.53,96.184a4.773,4.773,0,0,1-4.017,7.158,17.531,17.531,0,0,0-2.618.444L125.974,36.334c1.233-1.585,1.391-1.738,1.636-2.139ZM119.62,44.427l55.189,95.591L91.518,156.355,66.192,112.49ZM12.748,172.7a23.855,23.855,0,0,1,8.737-32.608L58.7,118.6l23.871,41.346L45.357,181.434A23.9,23.9,0,0,1,12.748,172.7Zm0,0" transform="translate(0 -11.682)"/>
      <path id="Path_3" data-name="Path 3" d="M72.9,311.96a4.775,4.775,0,0,0-6.522-1.747l-8.269,4.774a4.78,4.78,0,0,1-6.522-1.747,4.774,4.774,0,0,0-8.269,4.774,14.341,14.341,0,0,0,19.565,5.242l8.269-4.774A4.775,4.775,0,0,0,72.9,311.96Zm0,0" transform="translate(-22.305 -161.775)"/>
      <path id="Path_4" data-name="Path 4" d="M465.332,43.085l-26.6,14.8a4.774,4.774,0,1,0,4.644,8.344l26.6-14.8a4.774,4.774,0,0,0-4.642-8.344Zm0,0" transform="translate(-227.987 -22.199)" fill="#fff"/>
      <path id="Path_5" data-name="Path 5" d="M464.521,141.727l-18.446-4.942a4.774,4.774,0,1,0-2.471,9.222l18.448,4.942a4.773,4.773,0,1,0,2.469-9.222Zm0,0" transform="translate(-229.967 -71.395)" fill="#fff"/>
      <path id="Path_6" data-name="Path 6" d="M388.6,3.54l-4.948,18.448a4.775,4.775,0,1,0,9.224,2.473l4.946-18.448A4.774,4.774,0,1,0,388.6,3.54Zm0,0" transform="translate(-200.404)" fill="#fff"/>
    </g>
  </g>
</svg>
