<svg xmlns="http://www.w3.org/2000/svg" xmlns:xlink="http://www.w3.org/1999/xlink" width="529" height="464" viewBox="0 0 529 464">
  <defs>
    <linearGradient id="linear-gradient" x1="0.5" x2="0.5" y2="1" gradientUnits="objectBoundingBox">
      <stop offset="0" stop-color="#57b2e1"/>
      <stop offset="1" stop-color="#7d58a5"/>
    </linearGradient>
    <clipPath id="clip-month">
      <rect width="529" height="464"/>
    </clipPath>
  </defs>
  <g id="month" clip-path="url(#clip-month)">
    <rect width="529" height="464" fill="#fff"/>
    <g id="calendar" transform="translate(25.237 -7.263)">
      <path id="Path_5" data-name="Path 5" d="M455.084,60.653H432.758V53.211a7.442,7.442,0,0,0-7.442-7.442H373.221V38.326a22.326,22.326,0,1,0-44.653,0v7.442H313.684V38.326a22.326,22.326,0,1,0-44.653,0v7.442H179.726V38.326a22.326,22.326,0,1,0-44.653,0v7.442H120.189V38.326a22.326,22.326,0,0,0-44.653,0v7.442H23.442A7.442,7.442,0,0,0,16,53.211V425.316a7.442,7.442,0,0,0,7.442,7.442h7.442v22.326a7.442,7.442,0,0,0,7.442,7.442H455.084a7.442,7.442,0,0,0,7.442-7.442V68.095A7.442,7.442,0,0,0,455.084,60.653ZM30.884,417.874V149.958H417.874V417.874ZM343.453,38.326a7.442,7.442,0,0,1,14.884,0v7.442H343.453Zm-59.537,0a7.442,7.442,0,0,1,14.884,0v7.442H283.916Zm-133.958,0a7.442,7.442,0,0,1,14.884,0v7.442H149.958Zm-59.537,0a7.442,7.442,0,1,1,14.884,0v7.442H90.421ZM75.537,60.653v7.442A22.352,22.352,0,0,0,97.863,90.421a7.442,7.442,0,0,0,0-14.884,7.45,7.45,0,0,1-7.442-7.442V60.653h44.653v7.442A22.352,22.352,0,0,0,157.4,90.421a7.442,7.442,0,0,0,0-14.884,7.45,7.45,0,0,1-7.442-7.442V60.653H269.032v7.442a22.352,22.352,0,0,0,22.326,22.326,7.442,7.442,0,1,0,0-14.884,7.45,7.45,0,0,1-7.442-7.442V60.653h44.653v7.442a22.352,22.352,0,0,0,22.326,22.326,7.442,7.442,0,1,0,0-14.884,7.45,7.45,0,0,1-7.442-7.442V60.653h74.421v74.421H30.884V60.653ZM447.642,447.642H45.768V432.758H425.316a7.442,7.442,0,0,0,7.442-7.442V75.537h14.884Z" fill="url(#linear-gradient)"/>
    </g>
    <text id="_3" data-name="3" transform="translate(191 350)" fill="#7960aa" font-size="221" font-family="SegoeUI-Bold, Segoe UI" font-weight="700"><tspan x="0" y="0">3</tspan></text>
  </g>
</svg>
