<svg xmlns="http://www.w3.org/2000/svg" xmlns:xlink="http://www.w3.org/1999/xlink" width="651" height="531" viewBox="0 0 651 531">
  <defs>
    <linearGradient id="linear-gradient" y1="0.458" x2="0.488" y2="1" gradientUnits="objectBoundingBox">
      <stop offset="0" stop-color="#56b5e3" stop-opacity="0.549"/>
      <stop offset="1" stop-color="#7d58a5" stop-opacity="0.639"/>
    </linearGradient>
    <clipPath id="clip-networking">
      <rect width="651" height="531"/>
    </clipPath>
  </defs>
  <g id="networking" clip-path="url(#clip-networking)">
    <rect width="651" height="531" fill="#fff"/>
    <g id="Group_1" data-name="Group 1" transform="translate(0.052 -0.18)">
      <rect id="Rectangle_1" data-name="Rectangle 1" width="651" height="531" transform="translate(-0.052 0.18)" fill="url(#linear-gradient)"/>
    </g>
    <g id="Processor_security" data-name="Processor security" transform="translate(242 160.289)">
      <rect id="Rectangle_20" data-name="Rectangle 20" width="90" height="90" rx="4" transform="translate(60 60)" fill="#fff"/>
      <path id="Path_48" data-name="Path 48" d="M104.881,101.332H43.047A13.741,13.741,0,0,1,29.306,87.591V25.756a13.6,13.6,0,0,1,1.817-6.709A13.693,13.693,0,0,0,19,32.627V94.461A13.741,13.741,0,0,0,32.741,108.2H94.576A13.676,13.676,0,0,0,106.5,101.17,13.949,13.949,0,0,1,104.881,101.332Z" transform="translate(41.399 41.514)" fill="#fff"/>
      <g id="Group_16" data-name="Group 16" transform="translate(5.432 5.435)">
        <ellipse id="Ellipse_2" data-name="Ellipse 2" cx="7" cy="6.5" rx="7" ry="6.5" transform="translate(92.568 10.565)" fill="#f33944"/>
        <circle id="Ellipse_3" data-name="Ellipse 3" cx="7" cy="7" r="7" transform="translate(147.568 6.565)" fill="#f33944"/>
        <circle id="Ellipse_4" data-name="Ellipse 4" cx="7" cy="7" r="7" transform="translate(44.568 -0.435)" fill="#f33944"/>
        <ellipse id="Ellipse_5" data-name="Ellipse 5" cx="6.5" cy="7" rx="6.5" ry="7" transform="translate(120.568 185.565)" fill="#f33944"/>
        <ellipse id="Ellipse_6" data-name="Ellipse 6" cx="6.5" cy="7" rx="6.5" ry="7" transform="translate(151.568 164.565)" fill="#f33944"/>
        <circle id="Ellipse_7" data-name="Ellipse 7" cx="7" cy="7" r="7" transform="translate(44.568 185.565)" fill="#f33944"/>
        <circle id="Ellipse_8" data-name="Ellipse 8" cx="6.871" cy="6.871" r="6.871" transform="matrix(0.963, -0.27, 0.27, 0.963, 170.197, 50.12)" fill="#f33944"/>
        <circle id="Ellipse_9" data-name="Ellipse 9" cx="6.871" cy="6.871" r="6.871" transform="matrix(0.963, -0.27, 0.27, 0.963, 183.975, 135.995)" fill="#f33944"/>
        <circle id="Ellipse_10" data-name="Ellipse 10" cx="6.871" cy="6.871" r="6.871" transform="matrix(0.963, -0.27, 0.27, 0.963, 183.951, 81.031)" fill="#f33944"/>
        <circle id="Ellipse_11" data-name="Ellipse 11" cx="6.871" cy="6.871" r="6.871" transform="matrix(0.27, -0.963, 0.963, 0.27, 12.158, 59.753)" fill="#f33944"/>
        <circle id="Ellipse_12" data-name="Ellipse 12" cx="6.871" cy="6.871" r="6.871" transform="translate(12.415 159.942) rotate(-78.049)" fill="#f33944"/>
        <path id="Path_49" data-name="Path 49" d="M9.6,45.737a6.871,6.871,0,0,0,5.252-11.594l-1.546,1.288,1.546-1.288A6.871,6.871,0,1,0,9.6,45.737Z" transform="translate(-2.999 67.626)" fill="#f33944"/>
      </g>
      <path id="Path_65" data-name="Path 65" d="M2,0H40a2,2,0,0,1,2,2V39a2,2,0,0,1-2,2H2a2,2,0,0,1-2-2V2A2,2,0,0,1,2,0Z" transform="translate(84 95)" fill="#f33944"/>
      <path id="Path_50" data-name="Path 50" d="M32.871,56.482V29A6.891,6.891,0,0,0,26,35.871V63.353a6.891,6.891,0,0,0,6.871,6.871H60.353a6.891,6.891,0,0,0,6.871-6.87H39.741a6.891,6.891,0,0,1-6.87-6.87Z" transform="translate(58.446 65.752)" fill="#f43a45"/>
      <circle id="Ellipse_13" data-name="Ellipse 13" cx="6.871" cy="6.871" r="6.871" transform="matrix(0.963, -0.27, 0.27, 0.963, 96.641, 107.119)" fill="#f1f2f2"/>
      <path id="Path_51" data-name="Path 51" d="M27,11h6.871v6.871H27Z" transform="translate(60.881 21.917)"/>
      <path id="Path_52" data-name="Path 52" d="M53,35H59.87v6.871H53Z" transform="translate(124.198 80.363)"/>
      <path id="Path_53" data-name="Path 53" d="M35,51h6.871v6.87H35Z" transform="translate(80.363 119.327)"/>
      <path id="Path_54" data-name="Path 54" d="M27,54h6.871v6.871H27Z" transform="translate(60.881 126.633)"/>
      <path id="Path_55" data-name="Path 55" d="M11,31h6.871v6.871H11Z" transform="translate(21.917 70.622)"/>
      <path id="Path_56" data-name="Path 56" d="M35,11h6.871v6.871H35Z" transform="translate(80.363 21.917)"/>
      <path id="Path_57" data-name="Path 57" d="M51,27h6.87v6.871H51Z" transform="translate(119.327 60.881)"/>
      <path id="Path_58" data-name="Path 58" d="M46,17h6.871v6.871H46Z" transform="translate(107.151 36.529)"/>
      <path id="Path_59" data-name="Path 59" d="M16,17h6.871v6.871H16Z" transform="translate(34.094 36.529)"/>
      <path id="Path_60" data-name="Path 60" d="M46,45h6.871v6.871H46Z" transform="translate(107.151 104.716)"/>
      <path id="Path_61" data-name="Path 61" d="M16,45h6.871v6.871H16Z" transform="translate(34.094 104.716)"/>
      <path id="Path_62" data-name="Path 62" d="M38.938,31.007a10.285,10.285,0,0,0-3.03,20v7.482h6.871V50.983a10.282,10.282,0,0,0-3.841-19.976Zm3.841,10.172a3.438,3.438,0,1,1-3.573-3.3h.137a3.435,3.435,0,0,1,3.435,3.3Z" transform="translate(65.714 70.616)"/>
      <path id="Path_63" data-name="Path 63" d="M66.223,43.244V39.176a17.176,17.176,0,1,0-34.353,0v4.067A10.306,10.306,0,0,0,25,52.917V80.4A10.306,10.306,0,0,0,35.306,90.705H62.788A10.306,10.306,0,0,0,73.094,80.4V52.917a10.306,10.306,0,0,0-6.87-9.674ZM38.741,39.176a10.306,10.306,0,0,1,20.612,0v3.435H38.741ZM66.223,80.4a3.435,3.435,0,0,1-3.435,3.435H35.306A3.435,3.435,0,0,1,31.871,80.4V52.917a3.435,3.435,0,0,1,3.435-3.435H62.788a3.435,3.435,0,0,1,3.435,3.435Z" transform="translate(56.011 48.705)"/>
      <path id="Path_64" data-name="Path 64" d="M197.809,135.975a10.137,10.137,0,0,0-4.414,1.031l-7.9-7.9H153.151v-6.87h17.176v-6.871H153.151v-6.871h17.987l19.536-9.77a10.285,10.285,0,1,0-3.171-7.406,9.965,9.965,0,0,0,.127,1.247l-18.114,9.059H153.151V94.752h10.306V87.881H153.151V81.011h15.163l11.336-11.336a10.138,10.138,0,0,0,4.418,1.031A10.306,10.306,0,1,0,173.763,60.4a10.137,10.137,0,0,0,1.031,4.414L165.47,74.14H153.151a17.2,17.2,0,0,0-17.176-17.176V48.08l19.632-19.629a10.137,10.137,0,0,0,4.414,1.031,10.306,10.306,0,1,0-10.306-10.306,10.137,10.137,0,0,0,1.031,4.414L129.1,45.233V56.964h-6.87V46.658h-6.871V56.964h-6.871V32.285a10.306,10.306,0,1,0-6.871,0V56.964H94.752V46.658H87.881V56.964H81.011V31.5L66.239,16.723a10.138,10.138,0,0,0,1.031-4.418A10.306,10.306,0,1,0,56.964,22.612a10.137,10.137,0,0,0,4.414-1.031L74.14,34.339V56.964A17.2,17.2,0,0,0,56.964,74.14H44.645l-9.323-9.327A10.138,10.138,0,0,0,36.353,60.4,10.306,10.306,0,1,0,26.047,70.705a10.137,10.137,0,0,0,4.414-1.031L41.8,81.011H56.964v6.871H35.109L17.115,102.873a10.144,10.144,0,0,0-4.809-1.25,10.309,10.309,0,1,0,9.492,6.293L37.6,94.752H56.964v6.871H46.658v6.871H56.964v6.871H26.047v6.871H56.964v6.87H37.95L24.106,149.867a10.2,10.2,0,0,0-1.494-.151A10.4,10.4,0,1,0,30.2,153.11l11.422-17.135H56.964A17.2,17.2,0,0,0,74.14,153.151v22.625L61.378,188.534a10.137,10.137,0,0,0-4.414-1.031A10.306,10.306,0,1,0,67.27,197.809a10.138,10.138,0,0,0-1.031-4.414l14.772-14.772V153.151h6.871v20.612h6.871V153.151h6.871v29.385l20.866,13.054a10.457,10.457,0,1,0,3.672-5.809L108.493,178.73V153.151h6.871v10.306h6.871V153.151h6.87v27.482h24.679a10.306,10.306,0,1,0,0-6.87H135.975V153.151a17.2,17.2,0,0,0,17.176-17.176h29.5l5.888,5.891a10.137,10.137,0,0,0-1.031,4.414,10.306,10.306,0,1,0,10.306-10.306Zm0-48.094a3.435,3.435,0,1,1-3.435,3.435A3.435,3.435,0,0,1,197.809,87.881ZM184.068,56.964a3.435,3.435,0,1,1-3.435,3.435A3.435,3.435,0,0,1,184.068,56.964ZM160.022,15.741a3.435,3.435,0,1,1-3.435,3.435A3.435,3.435,0,0,1,160.022,15.741Zm-54.964,3.435a3.435,3.435,0,1,1-3.435,3.435A3.435,3.435,0,0,1,105.058,19.176ZM53.529,12.306a3.435,3.435,0,1,1,3.435,3.435A3.435,3.435,0,0,1,53.529,12.306ZM22.612,60.4a3.435,3.435,0,1,1,3.435,3.435A3.435,3.435,0,0,1,22.612,60.4ZM12.306,115.363a3.435,3.435,0,1,1,3.435-3.435A3.435,3.435,0,0,1,12.306,115.363Zm10.306,48.094a3.435,3.435,0,1,1,3.435-3.435A3.435,3.435,0,0,1,22.612,163.457Zm34.353,37.788a3.435,3.435,0,1,1,3.435-3.435A3.435,3.435,0,0,1,56.964,201.245Zm75.576-6.871a3.435,3.435,0,1,1-3.435,3.435A3.435,3.435,0,0,1,132.54,194.374Zm30.917-20.612a3.435,3.435,0,1,1-3.435,3.435A3.435,3.435,0,0,1,163.457,173.763Zm-17.176-37.788a10.306,10.306,0,0,1-10.306,10.306H74.14a10.306,10.306,0,0,1-10.306-10.306V74.14A10.306,10.306,0,0,1,74.14,63.835h61.835A10.306,10.306,0,0,1,146.281,74.14Zm51.529,13.741a3.435,3.435,0,1,1,3.435-3.435A3.435,3.435,0,0,1,197.809,149.716Z"/>
    </g>
  </g>
</svg>
