<svg xmlns="http://www.w3.org/2000/svg" xmlns:xlink="http://www.w3.org/1999/xlink" width="4450" height="3630" viewBox="0 0 4450 3630">
  <defs>
    <linearGradient id="linear-gradient" y1="0.458" x2="0.488" y2="1" gradientUnits="objectBoundingBox">
      <stop offset="0" stop-color="#56b5e3" stop-opacity="0.549"/>
      <stop offset="1" stop-color="#7d58a5" stop-opacity="0.639"/>
    </linearGradient>
    <clipPath id="clip-network">
      <rect width="4450" height="3630"/>
    </clipPath>
  </defs>
  <g id="network" clip-path="url(#clip-network)">
    <rect width="4450" height="3630" fill="url(#linear-gradient)"/>
    <g id="cyber-security_1_" data-name="cyber-security (1)" transform="translate(1793 1218.949)">
      <g id="Group_3" data-name="Group 3" transform="translate(1027.168 1334.525)">
        <path id="Path_33" data-name="Path 33" d="M353.552,460.59h.029Z" transform="translate(-353.552 -460.59)" fill="#0acefa"/>
      </g>
      <g id="Group_4" data-name="Group 4" transform="translate(177.089 23.621)">
        <path id="Path_34" data-name="Path 34" d="M603.251,21.942C520.113,157.743,331.206,270.163,85,334.8a28.854,28.854,0,0,0-21.5,25.883q-2.515,37.038-2.545,77.789c0,408.921,430.342,880.227,539.621,993.313a34.741,34.741,0,0,0,49.988,0C759.84,1318.7,1190.184,847.4,1190.184,438.475q0-40.8-2.548-77.789a28.854,28.854,0,0,0-21.5-25.883C919.926,270.16,731.022,157.74,647.885,21.942a26.1,26.1,0,0,0-44.634,0Z" transform="translate(-60.954 -9.376)" fill="#eceff6"/>
      </g>
      <g id="Group_6" data-name="Group 6" transform="translate(611.399 318.328)">
        <g id="Group_5" data-name="Group 5">
          <path id="Path_35" data-name="Path 35" d="M902.81,167.418a28.854,28.854,0,0,0-21.5-25.883q-52.971-13.906-102.214-30.72c.017,2.74.067,5.433.067,8.2,0,408.921-430.342,880.228-539.618,993.313a34.66,34.66,0,0,1-29.1,10.343c44.712,51.967,82.2,91.944,105.308,115.854a34.741,34.741,0,0,0,49.988,0C475.016,1125.434,905.361,654.13,905.361,245.209Q905.357,204.4,902.81,167.418Z" transform="translate(-210.444 -110.814)" fill="#aab3bc"/>
        </g>
      </g>
      <g id="Group_11" data-name="Group 11" transform="translate(541.861 658.228)">
        <g id="Group_10" data-name="Group 10">
          <g id="Group_8" data-name="Group 8" transform="translate(0 0)">
            <g id="Group_7" data-name="Group 7">
              <path id="Path_36" data-name="Path 36" d="M532.441,510.347H240.257A53.749,53.749,0,0,1,186.509,456.6V281.556a53.749,53.749,0,0,1,53.748-53.748H532.441a53.749,53.749,0,0,1,53.748,53.748V456.6A53.749,53.749,0,0,1,532.441,510.347Z" transform="translate(-186.509 -227.808)" fill="#e44c5d"/>
            </g>
          </g>
          <g id="Group_9" data-name="Group 9">
            <path id="Path_37" data-name="Path 37" d="M532.6,227.808H520.791V391.361A53.588,53.588,0,0,1,467.2,444.949H186.509v11.807A53.588,53.588,0,0,0,240.1,510.344H532.6a53.588,53.588,0,0,0,53.588-53.588V281.393A53.589,53.589,0,0,0,532.6,227.808Z" transform="translate(-186.509 -227.808)" fill="#e44c5d"/>
          </g>
        </g>
      </g>
      <g id="Group_12" data-name="Group 12" transform="translate(21.726 912.675)">
        <circle id="Ellipse_1" data-name="Ellipse 1" cx="41.589" cy="41.589" r="41.589" fill="#e44c5d"/>
      </g>
      <g id="Group_13" data-name="Group 13" transform="translate(21.726 1077.986)">
        <circle id="Ellipse_2" data-name="Ellipse 2" cx="41.589" cy="41.589" r="41.589" fill="#e44c5d"/>
      </g>
      <g id="Group_14" data-name="Group 14" transform="translate(1382.6 912.675)">
        <circle id="Ellipse_3" data-name="Ellipse 3" cx="41.589" cy="41.589" r="41.589" fill="#e44c5d"/>
      </g>
      <g id="Group_15" data-name="Group 15" transform="translate(201.231 1173.843)">
        <circle id="Ellipse_4" data-name="Ellipse 4" cx="41.589" cy="41.589" r="41.589" fill="#e44c5d"/>
      </g>
      <g id="Group_16" data-name="Group 16" transform="translate(1199.817 1173.843)">
        <circle id="Ellipse_5" data-name="Ellipse 5" cx="41.589" cy="41.589" r="41.589" fill="#e44c5d"/>
      </g>
      <g id="Group_17" data-name="Group 17" transform="translate(1142.679 1326.934)">
        <circle id="Ellipse_6" data-name="Ellipse 6" cx="41.589" cy="41.589" r="41.589" fill="#e44c5d"/>
      </g>
      <g id="Group_18" data-name="Group 18" transform="translate(257.542 1326.934)">
        <circle id="Ellipse_7" data-name="Ellipse 7" cx="41.589" cy="41.589" r="41.589" fill="#e44c5d"/>
      </g>
      <g id="Group_19" data-name="Group 19" transform="translate(1382.6 1077.986)">
        <circle id="Ellipse_8" data-name="Ellipse 8" cx="41.589" cy="41.589" r="41.589" fill="#e44c5d"/>
      </g>
      <g id="Group_20" data-name="Group 20" transform="translate(0 1.899)">
        <path id="Path_38" data-name="Path 38" d="M166.529,293.758C312.755,227.8,420.829,142.651,479.062,47.532a4.372,4.372,0,0,1,7.571,0c43.03,70.282,112.1,134.337,205.307,190.389,91.179,54.837,200.851,99.3,325.955,132.141a7.1,7.1,0,0,1,5.343,6.345c1.659,24.407,2.5,50.081,2.5,76.316,0,97.278-25.566,206.4-75.99,324.349a21.73,21.73,0,0,0,11.438,28.518A22.773,22.773,0,0,0,989.7,794.152c52.742-123.376,79.486-238.248,79.486-341.429,0-27.211-.875-53.878-2.6-79.259a50.5,50.5,0,0,0-37.658-45.424c-242.024-63.547-426.176-174.055-505.243-303.2a47.822,47.822,0,0,0-81.685,0C388.339,112.5,286.9,191.788,148.659,254.15a21.726,21.726,0,1,0,17.87,39.608Z" transform="translate(258.853 -1.899)"/>
        <path id="Path_39" data-name="Path 39" d="M622.161,592.787V417.424a75.4,75.4,0,0,0-68.867-75.02V309.11c0-84.2-68.5-152.7-152.7-152.7s-152.7,68.5-152.7,152.7v33.3a75.4,75.4,0,0,0-68.867,75.02V592.79A75.4,75.4,0,0,0,254.344,668.1h292.5a75.4,75.4,0,0,0,75.314-75.317ZM400.6,199.862A109.372,109.372,0,0,1,509.846,309.11v33h-218.5v-33A109.371,109.371,0,0,1,400.6,199.862ZM222.481,592.787V417.424a31.9,31.9,0,0,1,31.862-31.862h292.5a31.9,31.9,0,0,1,31.862,31.862V592.787a31.9,31.9,0,0,1-31.862,31.862h-292.5A31.9,31.9,0,0,1,222.481,592.787Z" transform="translate(341.103 292.49)"/>
        <path id="Path_40" data-name="Path 40" d="M282.118,257.582a44.677,44.677,0,0,0-15.383,85.346V370.92a9.5,9.5,0,0,0,9.5,9.5h17.574a9.5,9.5,0,0,0,9.5-9.5V342.928a44.678,44.678,0,0,0-21.2-85.346Z" transform="translate(457.927 485.074)"/>
        <path id="Path_41" data-name="Path 41" d="M1424.186,866.055a63.391,63.391,0,0,0-57.013,35.8H1082.5q18.914-27.969,37.394-57.121h148.2a38.864,38.864,0,0,0,27.652-11.453l44.268-44.271H1366a63.306,63.306,0,1,0-2.365-43.451h-25.424a38.863,38.863,0,0,0-27.652,11.45l-44.271,44.274H1146.659c19.892-33.207,39.021-67.3,56.923-102.065a21.726,21.726,0,0,0-38.631-19.892c-136.165,264.41-351.216,496.556-413.883,561.411a13.018,13.018,0,0,1-18.745,0c-52.466-54.3-187.536-200.267-308.3-382.617C274.578,632.459,198.8,432.07,198.8,262.518c0-26.235.84-51.909,2.5-76.325a7.1,7.1,0,0,1,5.343-6.336c40.471-10.625,80.011-22.708,117.522-35.9a21.725,21.725,0,0,0-14.422-40.988c-36.4,12.809-74.8,24.541-114.134,34.866a50.5,50.5,0,0,0-37.658,45.421c-1.726,25.386-2.6,52.054-2.6,79.262,0,157.356,61,338.279,181.412,538.764H217.106l-44.271-44.271a38.858,38.858,0,0,0-27.652-11.45H123.864a63.322,63.322,0,1,0-2.362,43.448h21.885l44.268,44.271a38.859,38.859,0,0,0,27.652,11.453h148.3q11.792,18.587,24.2,37.376,6.589,9.954,13.236,19.744H120.331A63.3,63.3,0,1,0,124.6,945.3H431.17q21.271,29.991,42.5,58.2H302.294a63.318,63.318,0,1,0,0,43.451H506.98c14.707,18.8,29.169,36.816,43.207,53.916H456.231a38.873,38.873,0,0,0-27.655,11.453l-44.268,44.271H358.6a63.315,63.315,0,1,0,0,43.451h27.5a38.874,38.874,0,0,0,27.655-11.456l44.265-44.268H586.55c49.242,57.739,90.459,101.7,114.529,126.609a56.47,56.47,0,0,0,81.237,0c27.083-28.027,67.69-71.511,114.788-126.667.392.02.779.058,1.177.058h127.088l44.274,44.276a38.862,38.862,0,0,0,27.647,11.447h27.5a63.318,63.318,0,1,0,0-43.451h-25.706l-44.276-44.28a38.861,38.861,0,0,0-27.647-11.444H933.444q21.127-25.716,43.225-53.916h205.261a63.318,63.318,0,1,0,0-43.451H1009.974q21.153-28.183,42.449-58.2h310.482a63.318,63.318,0,1,0,61.281-79.247Zm0-121.859a19.865,19.865,0,1,1-19.864,19.863A19.888,19.888,0,0,1,1424.186,744.2ZM63.318,783.925a19.865,19.865,0,1,1,19.863-19.866A19.889,19.889,0,0,1,63.318,783.925Zm0,165.308a19.865,19.865,0,1,1,19.863-19.864A19.886,19.886,0,0,1,63.318,949.233Zm179.5,95.86a19.866,19.866,0,1,1,19.863-19.866A19.887,19.887,0,0,1,242.821,1045.093Zm56.31,153.088A19.865,19.865,0,1,1,319,1178.317,19.886,19.886,0,0,1,299.131,1198.18Zm885.138-39.73a19.865,19.865,0,1,1-19.866,19.866A19.889,19.889,0,0,1,1184.268,1158.451Zm57.138-153.091a19.866,19.866,0,1,1-19.863,19.866A19.887,19.887,0,0,1,1241.406,1005.36Zm182.78-56.127a19.865,19.865,0,1,1,19.866-19.864A19.886,19.886,0,0,1,1424.186,949.233Z" transform="translate(0 188.307)"/>
        <circle id="Ellipse_9" data-name="Ellipse 9" cx="41.592" cy="41.592" r="41.592" transform="translate(685.891 1292.127) rotate(-67.486)"/>
        <ellipse id="Ellipse_10" data-name="Ellipse 10" cx="41.592" cy="41.589" rx="41.592" ry="41.589" transform="matrix(0.987, -0.16, 0.16, 0.987, 692.054, 178.311)"/>
        <path id="Path_42" data-name="Path 42" d="M133.328,145.777a41.591,41.591,0,1,0,41.592,41.592A41.59,41.59,0,0,0,133.328,145.777Z" transform="translate(174.789 272.229)"/>
        <path id="Path_43" data-name="Path 43" d="M431.81,145.777A41.591,41.591,0,1,0,473.4,187.369,41.592,41.592,0,0,0,431.81,145.777Z" transform="translate(743.475 272.229)"/>
      </g>
    </g>
  </g>
</svg>
