<svg xmlns="http://www.w3.org/2000/svg" xmlns:xlink="http://www.w3.org/1999/xlink" width="529" height="464" viewBox="0 0 529 464">
  <defs>
    <linearGradient id="linear-gradient" x1="0.5" x2="0.5" y2="1" gradientUnits="objectBoundingBox">
      <stop offset="0" stop-color="#57b0e0"/>
      <stop offset="1" stop-color="#7c59a5"/>
    </linearGradient>
    <clipPath id="clip-outline">
      <rect width="529" height="464"/>
    </clipPath>
  </defs>
  <g id="outline" clip-path="url(#clip-outline)">
    <rect width="529" height="464" fill="#fff"/>
    <g id="outline-2" data-name="outline" transform="translate(39.039 6.538)">
      <g id="Group_1" data-name="Group 1" transform="translate(0 0.006)">
        <path id="Path_7" data-name="Path 7" d="M424.5,240.949v-41.9a13.211,13.211,0,0,0-13.211-13.211,398.52,398.52,0,0,0-76.774,7.006,119.276,119.276,0,0,0-49.6-28.716,92.31,92.31,0,0,0,33.014-70.764C317.933,41.884,276.45.006,225.46.006s-92.474,41.878-92.474,93.355A92.305,92.305,0,0,0,166,164.124a119.3,119.3,0,0,0-49.6,28.716,398.59,398.59,0,0,0-76.774-7.006,13.211,13.211,0,0,0-13.211,13.211v41.9A39.694,39.694,0,0,0,0,278.308v26.421a39.694,39.694,0,0,0,26.421,37.36v41.9A13.211,13.211,0,0,0,39.632,397.2c69.073,0,125.793,16.366,178.5,51.5a13.253,13.253,0,0,0,14.656,0c52.708-35.138,109.428-51.5,178.5-51.5A13.211,13.211,0,0,0,424.5,383.992v-41.9a39.694,39.694,0,0,0,26.421-37.36V278.308A39.7,39.7,0,0,0,424.5,240.949ZM159.407,93.361c0-36.908,29.631-66.934,66.053-66.934s66.053,30.026,66.053,66.934a66.053,66.053,0,0,1-132.106,0ZM39.631,317.94A13.226,13.226,0,0,1,26.42,304.73V278.309a13.211,13.211,0,1,1,26.421,0V304.73A13.226,13.226,0,0,1,39.631,317.94Zm172.618,96.072c-47.957-27.426-99.419-41.287-159.408-43.039V342.089A39.694,39.694,0,0,0,79.263,304.73V278.309a39.694,39.694,0,0,0-26.421-37.359V212.443c62.073,1.782,111.968,16.4,159.408,46.6ZM225.46,236.157A313.959,313.959,0,0,0,148.6,200.826a92.666,92.666,0,0,1,50.436-14.991h52.842a92.666,92.666,0,0,1,50.436,14.991A313.945,313.945,0,0,0,225.46,236.157ZM398.078,370.973c-59.987,1.752-111.451,15.617-159.408,43.041V259.056c47.441-30.207,97.332-44.833,159.408-46.614v28.507a39.694,39.694,0,0,0-26.421,37.359V304.73a39.694,39.694,0,0,0,26.421,37.359ZM424.5,304.73a13.211,13.211,0,1,1-26.421,0V278.309a13.211,13.211,0,1,1,26.421,0Z" transform="translate(0 -0.006)" fill="url(#linear-gradient)"/>
      </g>
    </g>
  </g>
</svg>
