<svg xmlns="http://www.w3.org/2000/svg" xmlns:xlink="http://www.w3.org/1999/xlink" width="529" height="464" viewBox="0 0 529 464">
  <defs>
    <linearGradient id="linear-gradient" x1="0.414" x2="0.423" y2="0.909" gradientUnits="objectBoundingBox">
      <stop offset="0" stop-color="#56b5e3"/>
      <stop offset="1" stop-color="#7d58a5"/>
    </linearGradient>
    <clipPath id="clip-TotalStudent">
      <rect width="529" height="464"/>
    </clipPath>
  </defs>
  <g id="TotalStudent" clip-path="url(#clip-TotalStudent)">
    <rect width="529" height="464" fill="#fff"/>
    <g id="customer" transform="translate(8 -25)">
      <path id="Path_1" data-name="Path 1" d="M256,207a87,87,0,1,0-87-87A87.1,87.1,0,0,0,256,207Zm0-144a57,57,0,1,1-57,57A57.064,57.064,0,0,1,256,63Z" fill="url(#linear-gradient)"/>
      <path id="Path_2" data-name="Path 2" d="M432,207a55,55,0,1,0-55-55A55.062,55.062,0,0,0,432,207Zm0-80a25,25,0,1,1-25,25A25.028,25.028,0,0,1,432,127Z" fill="url(#linear-gradient)"/>
      <path id="Path_3" data-name="Path 3" d="M444.1,241H420.9a68,68,0,0,0-61.693,39.352A120.727,120.727,0,0,0,269.979,241H242.022a120.727,120.727,0,0,0-89.228,39.352A68,68,0,0,0,91.1,241H67.9C30.46,241,0,271.276,0,308.49V417.7A29.389,29.389,0,0,0,29.412,447h91.727a35.063,35.063,0,0,0,34.883,32H355.979a35.064,35.064,0,0,0,34.883-32h90.679A30.434,30.434,0,0,0,512,416.66V308.49C512,271.276,481.54,241,444.1,241ZM30,308.49A37.739,37.739,0,0,1,67.9,271H91.1A37.739,37.739,0,0,1,129,308.49v10.271c-10.087,26.264-8,42-8,98.239H30ZM361,443.979A5.026,5.026,0,0,1,355.979,449H156.021A5.027,5.027,0,0,1,151,443.979V362.022A91.124,91.124,0,0,1,242.021,271h27.957A91.124,91.124,0,0,1,361,362.021ZM482,416.66c0,.517,5.592.34-91,.34,0-56.651,2.071-72.018-8-98.239V308.49A37.739,37.739,0,0,1,420.9,271h23.2A37.739,37.739,0,0,1,482,308.49Z" fill="url(#linear-gradient)"/>
      <path id="Path_4" data-name="Path 4" d="M80,207a55,55,0,1,0-55-55A55.062,55.062,0,0,0,80,207Zm0-80a25,25,0,1,1-25,25A25.028,25.028,0,0,1,80,127Z" fill="url(#linear-gradient)"/>
    </g>
  </g>
</svg>
