<svg id="visual" viewBox="0 0 900 600" width="900" height="600" xmlns="http://www.w3.org/2000/svg" xmlns:xlink="http://www.w3.org/1999/xlink" version="1.1"><g stroke-width="1" stroke-linejoin="bevel"><path d="M412 276L405 176L321 213Z" fill="#54ade1" stroke="#54ade1"></path><path d="M321 213L300 268L412 276Z" fill="#726db9" stroke="#726db9"></path><path d="M412 276L481 176L405 176Z" fill="#5f8ad0" stroke="#5f8ad0"></path><path d="M461 135L414 117L405 176Z" fill="#726db9" stroke="#726db9"></path><path d="M405 176L414 117L321 213Z" fill="#6581c9" stroke="#6581c9"></path><path d="M481 176L461 135L405 176Z" fill="#6b77c2" stroke="#6b77c2"></path><path d="M321 213L237 230L300 268Z" fill="#56b5e3" stroke="#56b5e3"></path><path d="M229 77L237 230L321 213Z" fill="#7d58a5" stroke="#7d58a5"></path><path d="M202 305L309 364L300 268Z" fill="#5a93d5" stroke="#5a93d5"></path><path d="M300 268L309 364L412 276Z" fill="#5f8ad0" stroke="#5f8ad0"></path><path d="M309 364L415 387L412 276Z" fill="#726db9" stroke="#726db9"></path><path d="M412 276L521 325L481 176Z" fill="#726db9" stroke="#726db9"></path><path d="M415 387L471 366L412 276Z" fill="#5f8ad0" stroke="#5f8ad0"></path><path d="M471 366L521 325L412 276Z" fill="#726db9" stroke="#726db9"></path><path d="M237 230L202 305L300 268Z" fill="#569cda" stroke="#569cda"></path><path d="M414 117L260 61L321 213Z" fill="#726db9" stroke="#726db9"></path><path d="M237 230L134 297L202 305Z" fill="#726db9" stroke="#726db9"></path><path d="M260 61L229 77L321 213Z" fill="#7863b0" stroke="#7863b0"></path><path d="M635 420L582 297L521 325Z" fill="#54a4de" stroke="#54a4de"></path><path d="M521 325L582 297L481 176Z" fill="#569cda" stroke="#569cda"></path><path d="M481 176L587 134L461 135Z" fill="#5f8ad0" stroke="#5f8ad0"></path><path d="M602 174L587 134L481 176Z" fill="#569cda" stroke="#569cda"></path><path d="M434 0L323 0L414 117Z" fill="#54a4de" stroke="#54a4de"></path><path d="M414 117L323 0L260 61Z" fill="#7863b0" stroke="#7863b0"></path><path d="M582 297L602 174L481 176Z" fill="#5f8ad0" stroke="#5f8ad0"></path><path d="M434 0L414 117L461 135Z" fill="#56b5e3" stroke="#56b5e3"></path><path d="M260 61L171 0L229 77Z" fill="#569cda" stroke="#569cda"></path><path d="M490 0L434 0L461 135Z" fill="#7d58a5" stroke="#7d58a5"></path><path d="M202 305L200 390L309 364Z" fill="#5a93d5" stroke="#5a93d5"></path><path d="M309 364L384 470L415 387Z" fill="#54ade1" stroke="#54ade1"></path><path d="M304 519L384 470L309 364Z" fill="#6581c9" stroke="#6581c9"></path><path d="M415 387L475 493L471 366Z" fill="#5f8ad0" stroke="#5f8ad0"></path><path d="M471 366L635 420L521 325Z" fill="#6b77c2" stroke="#6b77c2"></path><path d="M229 77L137 168L237 230Z" fill="#569cda" stroke="#569cda"></path><path d="M202 305L134 297L200 390Z" fill="#6b77c2" stroke="#6b77c2"></path><path d="M137 168L134 297L237 230Z" fill="#6b77c2" stroke="#6b77c2"></path><path d="M587 134L490 0L461 135Z" fill="#726db9" stroke="#726db9"></path><path d="M384 470L475 493L415 387Z" fill="#6b77c2" stroke="#6b77c2"></path><path d="M200 390L304 519L309 364Z" fill="#54ade1" stroke="#54ade1"></path><path d="M384 470L423 600L475 493Z" fill="#7d58a5" stroke="#7d58a5"></path><path d="M323 0L171 0L260 61Z" fill="#54ade1" stroke="#54ade1"></path><path d="M229 77L77 133L137 168Z" fill="#54ade1" stroke="#54ade1"></path><path d="M663 0L587 0L587 134Z" fill="#54a4de" stroke="#54a4de"></path><path d="M587 134L587 0L490 0Z" fill="#54a4de" stroke="#54a4de"></path><path d="M125 0L77 133L229 77Z" fill="#726db9" stroke="#726db9"></path><path d="M137 168L0 262L134 297Z" fill="#7d58a5" stroke="#7d58a5"></path><path d="M475 493L635 420L471 366Z" fill="#7d58a5" stroke="#7d58a5"></path><path d="M724 285L724 197L602 174Z" fill="#56b5e3" stroke="#56b5e3"></path><path d="M602 174L721 66L587 134Z" fill="#5a93d5" stroke="#5a93d5"></path><path d="M0 262L75 372L134 297Z" fill="#56b5e3" stroke="#56b5e3"></path><path d="M134 297L75 372L200 390Z" fill="#7863b0" stroke="#7863b0"></path><path d="M200 390L222 536L304 519Z" fill="#5a93d5" stroke="#5a93d5"></path><path d="M171 0L125 0L229 77Z" fill="#569cda" stroke="#569cda"></path><path d="M77 515L222 536L200 390Z" fill="#7d58a5" stroke="#7d58a5"></path><path d="M304 519L423 600L384 470Z" fill="#7863b0" stroke="#7863b0"></path><path d="M724 285L602 174L582 297Z" fill="#6b77c2" stroke="#6b77c2"></path><path d="M729 381L724 285L582 297Z" fill="#54a4de" stroke="#54a4de"></path><path d="M721 66L663 0L587 134Z" fill="#54ade1" stroke="#54ade1"></path><path d="M294 600L423 600L304 519Z" fill="#5f8ad0" stroke="#5f8ad0"></path><path d="M475 493L590 539L635 420Z" fill="#54ade1" stroke="#54ade1"></path><path d="M500 600L590 539L475 493Z" fill="#5a93d5" stroke="#5a93d5"></path><path d="M635 420L729 381L582 297Z" fill="#6b77c2" stroke="#6b77c2"></path><path d="M0 176L0 262L137 168Z" fill="#726db9" stroke="#726db9"></path><path d="M0 176L137 168L77 133Z" fill="#5f8ad0" stroke="#5f8ad0"></path><path d="M724 197L721 66L602 174Z" fill="#569cda" stroke="#569cda"></path><path d="M222 536L294 600L304 519Z" fill="#56b5e3" stroke="#56b5e3"></path><path d="M0 64L0 176L77 133Z" fill="#54a4de" stroke="#54a4de"></path><path d="M734 463L729 381L635 420Z" fill="#5a93d5" stroke="#5a93d5"></path><path d="M724 285L777 300L724 197Z" fill="#6b77c2" stroke="#6b77c2"></path><path d="M724 197L766 93L721 66Z" fill="#726db9" stroke="#726db9"></path><path d="M423 600L500 600L475 493Z" fill="#726db9" stroke="#726db9"></path><path d="M729 381L777 300L724 285Z" fill="#726db9" stroke="#726db9"></path><path d="M109 600L211 600L222 536Z" fill="#569cda" stroke="#569cda"></path><path d="M222 536L211 600L294 600Z" fill="#7d58a5" stroke="#7d58a5"></path><path d="M77 515L200 390L75 372Z" fill="#5a93d5" stroke="#5a93d5"></path><path d="M777 300L782 170L724 197Z" fill="#54ade1" stroke="#54ade1"></path><path d="M782 170L766 93L724 197Z" fill="#5f8ad0" stroke="#5f8ad0"></path><path d="M721 66L785 0L663 0Z" fill="#5f8ad0" stroke="#5f8ad0"></path><path d="M125 0L0 64L77 133Z" fill="#569cda" stroke="#569cda"></path><path d="M0 262L0 396L75 372Z" fill="#7d58a5" stroke="#7d58a5"></path><path d="M0 396L77 515L75 372Z" fill="#7d58a5" stroke="#7d58a5"></path><path d="M590 539L734 463L635 420Z" fill="#7d58a5" stroke="#7d58a5"></path><path d="M500 600L577 600L590 539Z" fill="#7d58a5" stroke="#7d58a5"></path><path d="M687 600L734 463L590 539Z" fill="#6b77c2" stroke="#6b77c2"></path><path d="M729 381L833 378L777 300Z" fill="#56b5e3" stroke="#56b5e3"></path><path d="M125 0L0 0L0 64Z" fill="#7d58a5" stroke="#7d58a5"></path><path d="M0 600L109 600L77 515Z" fill="#56b5e3" stroke="#56b5e3"></path><path d="M77 515L109 600L222 536Z" fill="#54a4de" stroke="#54a4de"></path><path d="M900 72L785 0L766 93Z" fill="#56b5e3" stroke="#56b5e3"></path><path d="M766 93L785 0L721 66Z" fill="#7d58a5" stroke="#7d58a5"></path><path d="M0 396L0 503L77 515Z" fill="#56b5e3" stroke="#56b5e3"></path><path d="M803 482L833 378L734 463Z" fill="#7d58a5" stroke="#7d58a5"></path><path d="M734 463L833 378L729 381Z" fill="#6581c9" stroke="#6581c9"></path><path d="M777 300L900 223L782 170Z" fill="#726db9" stroke="#726db9"></path><path d="M782 170L900 72L766 93Z" fill="#5f8ad0" stroke="#5f8ad0"></path><path d="M577 600L687 600L590 539Z" fill="#5a93d5" stroke="#5a93d5"></path><path d="M687 600L803 482L734 463Z" fill="#569cda" stroke="#569cda"></path><path d="M900 301L777 300L833 378Z" fill="#5f8ad0" stroke="#5f8ad0"></path><path d="M900 301L900 223L777 300Z" fill="#7d58a5" stroke="#7d58a5"></path><path d="M900 386L900 301L833 378Z" fill="#54a4de" stroke="#54a4de"></path><path d="M0 503L0 600L77 515Z" fill="#726db9" stroke="#726db9"></path><path d="M900 223L900 72L782 170Z" fill="#54a4de" stroke="#54a4de"></path><path d="M900 473L833 378L803 482Z" fill="#6581c9" stroke="#6581c9"></path><path d="M900 473L900 386L833 378Z" fill="#5a93d5" stroke="#5a93d5"></path><path d="M900 72L900 0L785 0Z" fill="#7863b0" stroke="#7863b0"></path><path d="M826 600L900 473L803 482Z" fill="#569cda" stroke="#569cda"></path><path d="M687 600L826 600L803 482Z" fill="#5a93d5" stroke="#5a93d5"></path><path d="M826 600L900 600L900 473Z" fill="#6581c9" stroke="#6581c9"></path></g></svg>